<?xml version="1.0" encoding="UTF-8" standalone="no"?>
<!-- Created with Inkscape (http://www.inkscape.org/) -->

<svg
   xmlns:dc="http://purl.org/dc/elements/1.1/"
   xmlns:cc="http://creativecommons.org/ns#"
   xmlns:rdf="http://www.w3.org/1999/02/22-rdf-syntax-ns#"
   xmlns:svg="http://www.w3.org/2000/svg"
   xmlns="http://www.w3.org/2000/svg"
   xmlns:sodipodi="http://sodipodi.sourceforge.net/DTD/sodipodi-0.dtd"
   xmlns:inkscape="http://www.inkscape.org/namespaces/inkscape"
   id="svg3020"
   version="1.1"
   inkscape:version="0.48.4 r9939"
   width="4008"
   height="2600"
   sodipodi:docname="logigrama.eps">
  <metadata
     id="metadata3026">
    <rdf:RDF>
      <cc:Work
         rdf:about="">
        <dc:format>image/svg+xml</dc:format>
        <dc:type
           rdf:resource="http://purl.org/dc/dcmitype/StillImage" />
        <dc:title></dc:title>
      </cc:Work>
    </rdf:RDF>
  </metadata>
  <defs
     id="defs3024" />
  <sodipodi:namedview
     pagecolor="#ffffff"
     bordercolor="#666666"
     borderopacity="1"
     objecttolerance="10"
     gridtolerance="10"
     guidetolerance="10"
     inkscape:pageopacity="0"
     inkscape:pageshadow="2"
     inkscape:window-width="1364"
     inkscape:window-height="747"
     id="namedview3022"
     showgrid="true"
     inkscape:zoom="0.15376344"
     inkscape:cx="2530.0736"
     inkscape:cy="1470.6818"
     inkscape:window-x="0"
     inkscape:window-y="19"
     inkscape:window-maximized="1"
     inkscape:current-layer="svg3020">
    <inkscape:grid
       type="xygrid"
       id="grid3032" />
  </sodipodi:namedview>
  <path
     style="fill:#000000"
     d="M 880.125 193.0625 C 879.59341 193.0469 879.01943 193.05225 878.40625 193.09375 L 874.28125 193.375 L 886.15625 224.75 L 898.0625 256.125 L 903.03125 256.125 L 908 256.125 L 919.875 224.75 L 931.78125 193.375 L 927.65625 193.09375 C 925.18927 192.9261 923.26414 193.24541 922.875 193.875 C 922.5163 194.45537 917.99803 206.27318 912.84375 220.125 C 907.68938 233.97672 903.27967 245.3125 903.03125 245.3125 C 902.78285 245.3125 898.34177 233.97672 893.1875 220.125 C 888.03312 206.27318 883.54619 194.45537 883.1875 193.875 C 882.89604 193.40336 881.71977 193.1093 880.125 193.0625 z M 961.1875 206.625 C 945.61281 206.6803 936.34297 217.39235 937.625 234.34375 C 938.44591 245.1977 943.45129 252.47963 952.375 255.8125 C 956.30875 257.28181 968.62077 257.01412 972.8125 255.375 C 974.92729 254.54804 975.28125 253.88313 975.28125 250.90625 L 975.28125 247.40625 L 970.53125 249.03125 C 955.88671 254.09041 945.46875 246.93524 945.46875 231.78125 C 945.46875 216.62733 955.88671 209.44084 970.53125 214.5 L 975.28125 216.15625 L 975.28125 212.65625 C 975.28125 208.46271 973.58397 207.52521 964.40625 206.75 C 963.31332 206.6577 962.22581 206.62132 961.1875 206.625 z M 1009.0625 206.625 C 993.48785 206.6803 984.21797 217.39235 985.5 234.34375 C 986.32091 245.1977 991.32628 252.47963 1000.25 255.8125 C 1004.1837 257.28181 1016.4958 257.01412 1020.6875 255.375 C 1022.8023 254.54804 1023.1564 253.88313 1023.1562 250.90625 L 1023.1562 247.40625 L 1018.4062 249.03125 C 1003.7618 254.09041 993.34375 246.93524 993.34375 231.78125 C 993.34375 216.62733 1003.7618 209.44084 1018.4062 214.5 L 1023.1562 216.15625 L 1023.1562 212.65625 C 1023.1562 208.46271 1021.4592 207.52521 1012.2812 206.75 C 1011.1884 206.6577 1010.1008 206.62132 1009.0625 206.625 z M 934.625 281.46875 L 934.625 389.84375 L 934.625 498.25 L 728.6875 498.25 L 522.71875 498.25 L 522.71875 462.125 L 522.71875 426 L 367.375 426 L 212 426 L 212 436.8125 L 212 447.65625 L 356.53125 447.65625 L 501.0625 447.65625 L 501.0625 483.8125 L 501.0625 519.9375 L 717.84375 519.9375 L 934.625 519.9375 L 934.625 545.21875 L 934.625 570.5 L 573.3125 570.5 L 212 570.5 L 212 581.34375 L 212 592.1875 L 573.3125 592.1875 L 934.625 592.1875 L 934.625 617.5 L 934.625 642.78125 L 717.84375 642.78125 L 501.0625 642.78125 L 501.0625 678.90625 L 501.0625 715.03125 L 356.53125 715.03125 L 212 715.03125 L 212 725.875 L 212 736.71875 L 367.375 736.71875 L 522.71875 736.71875 L 522.71875 700.59375 L 522.71875 664.46875 L 728.6875 664.46875 L 934.625 664.46875 L 934.625 762 L 934.625 859.5625 L 573.3125 859.5625 L 212 859.5625 L 212 870.40625 L 212 881.25 L 573.3125 881.25 L 934.625 881.25 L 934.625 953.5 L 934.625 1025.7812 L 1007.5938 1025.7812 C 1071.2047 1025.7812 1080.8024 1025.9359 1082.5 1027.125 C 1088.6376 1031.4239 1099.3259 1028.7421 1102.375 1022.125 L 1104 1018.5938 L 1163.8438 1018.5625 L 1223.6875 1018.5625 L 1223.6875 1065.5312 L 1223.6875 1112.5 L 1491.0625 1112.5 L 1758.4375 1112.5 L 1758.4375 1029.375 L 1758.4375 946.25 L 1814.7188 946.3125 L 1867 946.375 L 1867 939.0625 L 1860.0938 939.0625 L 1849.25 939.0625 L 1803.8438 923.9375 L 1758.4375 908.8125 L 1758.4375 891.40625 L 1758.4375 874 L 1814.7188 874.03125 L 1867 874.09375 L 1867 866.78125 L 1860.0938 866.78125 L 1849.25 866.78125 L 1803.8438 851.65625 L 1758.4375 836.53125 L 1758.4375 819.125 L 1758.4375 801.71875 L 1814.7188 801.78125 L 1867 801.84375 L 1867 794.53125 L 1860.0938 794.53125 L 1849.25 794.53125 L 1803.8438 779.40625 L 1758.4375 764.28125 L 1758.4375 746.875 L 1758.4375 729.46875 L 1814.7188 729.53125 L 1867 729.5625 L 1867 722.25 L 1860.0938 722.25 L 1849.25 722.25 L 1803.8438 707.125 L 1758.4375 692.03125 L 1758.4375 674.625 L 1758.4375 657.1875 L 1814.7812 657.25 L 1871.0938 657.3125 L 1872.7812 660.75 C 1875.9085 667.17746 1884.8958 669.82803 1891.625 666.3125 L 1895.2188 664.4375 L 2065.2812 664.4375 L 2235.375 664.4375 L 2235.375 1051.0625 L 2235.375 1437.6562 L 1884.9062 1437.6562 L 1534.4062 1437.6562 L 1534.4062 1365.4062 L 1534.4062 1293.1562 L 1028.5625 1293.1562 L 522.71875 1293.1562 L 522.71875 1257 L 522.71875 1220.875 L 367.375 1220.875 L 212 1220.875 L 212 1231.7188 L 212 1242.5625 L 356.53125 1242.5625 L 501.0625 1242.5625 L 501.0625 1278.6875 L 501.0625 1314.8125 L 1006.9062 1314.8125 L 1512.75 1314.8125 L 1512.75 1376.25 L 1512.75 1437.6562 L 1487.4375 1437.6562 L 1462.1562 1437.6562 L 1462.1562 1401.5312 L 1462.1562 1365.4062 L 837.09375 1365.4062 L 212 1365.4062 L 212 1376.25 L 212 1387.0938 L 826.25 1387.0938 L 1440.4688 1387.0938 L 1440.4688 1412.375 L 1440.4688 1437.6562 L 1259.8125 1437.6562 L 1079.1562 1437.6562 L 1079.1562 1646.6875 L 1079.1562 1855.7188 L 1074.5625 1858.6562 C 1071.8239 1860.4144 1068.6671 1863.5675 1066.7812 1866.4062 C 1058.062 1879.5394 1061.3176 1896.648 1074.3125 1905.8438 L 1079.1562 1909.2812 L 1079.1562 1962.5312 L 1079.1562 2015.7812 L 989.78125 2015.7812 L 900.375 2015.7812 L 896.96875 2010.9062 C 895.03173 2008.1591 891.46006 2004.7208 888.78125 2003 L 884.0625 1999.9688 L 884.0625 1718.8125 L 884.0625 1437.6562 L 692.5625 1437.6562 L 501.0625 1437.6562 L 501.0625 1473.8125 L 501.0625 1509.9375 L 356.53125 1509.9375 L 212 1509.9375 L 212 1520.7812 L 212 1531.625 L 367.375 1531.625 L 522.71875 1531.625 L 522.71875 1495.4688 L 522.71875 1459.3438 L 692.5625 1459.3438 L 862.375 1459.3438 L 862.375 1729.7812 L 862.375 2000.2188 L 857.75 2003.1875 C 855.01131 2004.9448 851.8542 2008.0978 849.96875 2010.9375 C 841.2489 2024.0706 844.53639 2041.1793 857.53125 2050.375 L 862.375 2053.7812 L 862.375 2190.1562 L 862.375 2326.5 L 1043.7188 2326.5 C 1160.5762 2326.5 1204.9545 2326.629 1220 2327.1562 C 1387.7107 2327.2083 1205 2327.3483 1460 2327.5625 C 1545 2326.9565 1497.095 2326.5848 1606 2326.5625 L 1751.1875 2326.5312 L 1751.25 2309.4688 C 1751.212 2309.0599 1751.24 2309.0696 1751.25 2308.6562 L 1751.2812 2305 C 1751.2953 2299.8926 1751.0784 2283.1696 1751.0312 2280.2188 C 1751.3863 2280.2087 1751.7397 2280.1875 1752.0938 2280.1875 C 1752.2885 2280.1435 1752.38 2280.1115 1752.625 2280.0625 C 1770.8137 2276.4466 1783.6523 2258.1431 1782.3125 2238.9688 C 1781.2472 2223.7233 1771.3115 2210.2127 1757.3125 2204.9375 C 1754.7999 2203.9904 1752.2904 2202.5881 1751.4375 2201.7188 C 1751.5499 2201.6777 1751.5428 2201.6973 1751.6562 2201.6562 L 1778.2812 2191.8438 L 1804.875 2182 L 1922.5625 2182 L 2040.25 2182 L 2040.25 2118.0312 L 2040.25 2054.0312 L 2045.1562 2050.6562 C 2047.8528 2048.7994 2051.5804 2045.0717 2053.4375 2042.375 L 2056.8125 2037.4688 L 2146.0938 2037.4688 L 2235.375 2037.4688 L 2235.375 2109.75 L 2235.375 2182 L 2271.5 2182 L 2307.625 2182 L 2307.625 2244.5938 C 2307.625 2300.7431 2307.4969 2307.3808 2306.1875 2309.25 C 2304.2767 2311.978 2304.2767 2319.5213 2306.1875 2322.4375 C 2307.3865 2324.2675 2307.625 2327.4173 2307.625 2340.0625 L 2307.625 2355.4375 L 2282.3438 2355.4375 L 2257.0625 2355.4375 L 2257.0625 2359.0625 L 2257.0625 2362.6562 L 2318.4688 2362.6562 L 2379.9062 2362.6562 L 2379.9062 2359.0625 L 2379.9062 2355.4375 L 2354.625 2355.4375 L 2329.3125 2355.4375 L 2329.3125 2340.7188 C 2329.3125 2327.5954 2329.5202 2325.6292 2331.1875 2322.4375 C 2333.3267 2318.3426 2333.1087 2311.6622 2330.7188 2308.25 C 2329.4922 2306.4998 2329.3125 2298.6933 2329.3125 2244.125 L 2329.3125 2182 L 2355.3125 2182 C 2377.0333 2182 2381.6228 2182.2353 2383.25 2183.375 C 2389.3875 2187.6738 2400.076 2184.9605 2403.125 2178.3438 L 2404.75 2174.8125 L 2464.5938 2174.8125 L 2524.4375 2174.7812 L 2524.4375 2221.75 L 2524.4375 2268.7188 L 2791.8125 2268.7188 L 3059.1875 2268.7188 L 3059.1875 2185.5938 L 3059.1875 2102.5 L 3115.4375 2102.5312 L 3160 2102.5938 L 3160 2095.2812 L 3149.9688 2095.2812 L 3104.5938 2080.1562 L 3059.1875 2065.0312 L 3059.1875 2047.625 L 3059.1875 2030.2188 L 3115.4375 2030.2812 L 3160 2030.3125 L 3160 2023.0312 L 3149.9688 2023.0312 L 3104.5938 2007.9062 L 3059.1875 1992.7812 L 3059.1875 1975.375 L 3059.1875 1957.9688 L 3115.4375 1958 L 3160 1958.0625 L 3160 1950.75 L 3149.9688 1950.75 L 3104.5938 1935.625 L 3059.1875 1920.5 L 3059.1875 1903.0938 L 3059.1875 1885.6875 L 3115.4375 1885.75 L 3160 1885.7812 L 3160 1878.5 L 3149.9688 1878.5 L 3104.5938 1863.375 L 3059.1875 1848.25 L 3059.1875 1830.8438 L 3059.1875 1813.4375 L 3115.5 1813.4688 L 3171.8438 1813.5312 L 3173.5 1816.9688 C 3176.6264 1823.3963 3185.6458 1826.0472 3192.375 1822.5312 C 3195.7476 1820.7703 3197.4159 1820.6875 3221.5 1820.6875 L 3247.0625 1820.6875 L 3247.0625 1856.8125 L 3247.0625 1892.9375 L 3320.0312 1892.9375 C 3380.4021 1892.9375 3393.307 1893.1619 3394.7812 1894.1875 C 3395.7614 1894.8692 3397.8622 1895.713 3399.4688 1896.0625 L 3402.4062 1896.6875 L 3402.6562 1919.9375 L 3402.875 1943.1875 L 3474.6875 1916.7188 C 3514.184 1902.1608 3546.73 1890.26 3547 1890.25 C 3547.2702 1890.24 3548.0079 1892.6071 3548.6562 1895.5312 C 3552.6728 1913.6363 3570.5441 1926.5583 3589.7188 1925.2188 C 3604.9641 1924.1531 3618.5061 1914.2171 3623.7812 1900.2188 C 3624.7976 1897.5213 3626.3132 1894.7972 3627.1562 1894.1562 C 3628.3783 1893.2278 3643.5294 1892.9914 3701.6562 1892.9688 L 3774.5938 1892.9375 L 3774.5938 1882.0938 L 3774.5938 1871.25 L 3701.7188 1871.25 C 3634.2222 1871.25 3628.6032 1871.152 3625.4375 1869.6875 C 3623.5285 1868.8046 3621.5614 1867.0419 3621 1865.7188 C 3619.5973 1862.4117 3611.6527 1854.5081 3607 1851.7812 C 3595.9174 1845.2871 3581.9127 1844.7595 3569.8438 1850.4062 C 3562.3238 1853.9262 3554.4947 1861.7691 3551.4375 1868.8125 C 3550.2181 1871.622 3548.7786 1874.101 3548.25 1874.3125 C 3547.7214 1874.524 3515.4054 1862.9539 3476.4375 1848.5938 C 3437.4696 1834.2328 3404.8924 1822.2435 3404.0312 1821.9688 C 3402.5784 1821.5041 3402.4423 1823.1344 3402.2188 1844.7812 L 3401.9688 1868.0938 L 3399.75 1868.4062 C 3398.522 1868.5803 3396.7124 1869.3039 3395.7188 1870 C 3394.2105 1871.0561 3383.5183 1871.25 3331.3125 1871.25 L 3268.75 1871.25 L 3268.75 1835.125 L 3268.75 1799 L 3231.6875 1799 C 3199.3302 1799 3194.3194 1798.8162 3192.4062 1797.5625 C 3186.8792 1793.941 3176.4069 1796.8587 3173.5625 1802.8125 L 3171.9375 1806.2188 L 3160.9688 1806.2188 L 3149.9688 1806.2188 L 3104.5938 1791.0938 L 3059.1875 1775.9688 L 3059.1875 1758.5625 L 3059.1875 1741.1562 L 3115.5 1741.2188 L 3171.8438 1741.25 L 3173.5 1744.7188 C 3176.6264 1751.1463 3185.6458 1753.7972 3192.375 1750.2812 C 3195.9296 1748.4256 3196.6017 1748.4066 3294.4688 1748.4062 C 3376.4958 1748.4072 3393.2982 1748.625 3394.7812 1749.6562 C 3395.7614 1750.3383 3397.8622 1751.1817 3399.4688 1751.5312 L 3402.4062 1752.1562 L 3402.6562 1775.4062 L 3402.875 1798.6875 L 3474.6875 1772.1875 C 3514.184 1757.6264 3546.73 1745.7283 3547 1745.7188 C 3547.2702 1745.7088 3548.0079 1748.1068 3548.6562 1751.0312 C 3552.6728 1769.1363 3570.5441 1782.0581 3589.7188 1780.7188 C 3604.9641 1779.6527 3618.5061 1769.7169 3623.7812 1755.7188 C 3624.7976 1753.0213 3626.3132 1750.2659 3627.1562 1749.625 C 3628.3783 1748.6964 3643.5294 1748.4605 3701.6562 1748.4375 L 3774.5938 1748.4062 L 3774.5938 1737.5625 L 3774.5938 1726.7188 L 3701.7188 1726.7188 C 3634.2222 1726.7178 3628.6032 1726.6208 3625.4375 1725.1562 C 3623.5285 1724.274 3621.5614 1722.5418 3621 1721.2188 C 3619.5973 1717.9117 3611.6527 1709.9767 3607 1707.25 C 3595.9174 1700.7551 3581.9127 1700.2585 3569.8438 1705.9062 C 3562.3238 1709.4261 3554.4947 1717.2385 3551.4375 1724.2812 C 3550.2181 1727.091 3548.7786 1729.5706 3548.25 1729.7812 C 3547.7214 1729.9932 3515.4054 1718.4228 3476.4375 1704.0625 C 3437.4696 1689.7021 3404.8924 1677.7127 3404.0312 1677.4375 C 3402.5784 1676.9727 3402.4423 1678.6029 3402.2188 1700.25 L 3401.9688 1723.5625 L 3399.75 1723.875 C 3398.522 1724.0481 3396.7124 1724.772 3395.7188 1725.4688 C 3394.1952 1726.5349 3378.2449 1726.718 3294.25 1726.7188 C 3204.6975 1726.7188 3194.3764 1726.6032 3192.4062 1725.3125 C 3186.8792 1721.6911 3176.4069 1724.6086 3173.5625 1730.5625 L 3171.9375 1733.9688 L 3160.9688 1733.9688 L 3149.9688 1733.9688 L 3104.5938 1718.8438 L 3059.1875 1703.7188 L 3059.1875 1686.3125 L 3059.1875 1668.9062 L 3115.5 1668.9375 L 3171.8438 1669 L 3173.5 1672.4375 C 3176.6264 1678.8651 3185.6458 1681.5472 3192.375 1678.0312 C 3195.9068 1676.1861 3196.8872 1676.1562 3268.4688 1676.1562 L 3341 1676.1562 L 3341 1640.0312 L 3341 1603.875 L 3367 1603.875 C 3387.5625 1603.875 3393.372 1604.1444 3394.7812 1605.125 C 3395.7614 1605.8067 3397.8622 1606.6504 3399.4688 1607 L 3402.4062 1607.625 L 3402.6562 1630.875 L 3402.875 1654.1562 L 3474.6875 1627.6562 C 3514.184 1613.0959 3546.73 1601.1975 3547 1601.1875 C 3547.2702 1601.1775 3548.0079 1603.5757 3548.6562 1606.5 C 3552.6728 1624.6047 3570.5441 1637.5271 3589.7188 1636.1875 C 3604.9641 1635.1225 3618.5061 1625.1866 3623.7812 1611.1875 C 3624.7976 1608.4907 3626.3132 1605.7336 3627.1562 1605.0938 C 3628.3783 1604.1642 3643.5294 1603.9296 3701.6562 1603.9062 L 3774.5938 1603.875 L 3774.5938 1593.0312 L 3774.5938 1582.2188 L 3701.7188 1582.2188 C 3634.2222 1582.2188 3628.6032 1582.0891 3625.4375 1580.625 C 3623.5285 1579.742 3621.5614 1578.0107 3621 1576.6875 C 3619.5973 1573.381 3611.6527 1565.4446 3607 1562.7188 C 3595.9174 1556.2233 3581.9127 1555.7272 3569.8438 1561.375 C 3562.3238 1564.8939 3554.4947 1572.7066 3551.4375 1579.75 C 3550.2181 1582.5596 3548.7786 1585.0385 3548.25 1585.25 C 3547.7214 1585.4616 3515.4054 1573.8921 3476.4375 1559.5312 C 3437.4696 1545.1716 3404.8924 1533.1823 3404.0312 1532.9062 C 3402.5784 1532.4424 3402.4423 1534.0717 3402.2188 1555.7188 L 3401.9688 1579.0312 L 3399.75 1579.375 C 3398.522 1579.5483 3396.7124 1580.2413 3395.7188 1580.9375 C 3394.2395 1581.9736 3387.1398 1582.2188 3356.625 1582.2188 L 3319.3125 1582.2188 L 3319.3125 1618.3438 L 3319.3125 1654.4688 L 3256.9688 1654.4688 C 3201.4947 1654.4688 3194.3559 1654.3091 3192.4062 1653.0312 C 3186.8792 1649.4107 3176.4069 1652.3283 3173.5625 1658.2812 L 3171.9375 1661.6875 L 3160.9688 1661.6875 L 3149.9688 1661.6875 L 3104.5938 1646.5625 L 3059.1875 1631.4375 L 3059.1875 1614.0312 L 3059.1875 1596.625 L 3115.5 1596.6875 L 3171.8438 1596.75 L 3173.5 1600.1875 C 3176.6264 1606.6151 3185.6458 1609.2656 3192.375 1605.75 C 3195.8207 1603.9507 3197.2985 1603.875 3232.3438 1603.875 L 3268.75 1603.875 L 3268.75 1531.625 L 3268.75 1459.3438 L 3330.875 1459.3438 C 3382.0593 1459.3438 3393.3136 1459.5724 3394.7812 1460.5938 C 3395.7614 1461.2746 3397.8622 1462.1183 3399.4688 1462.4688 L 3402.4062 1463.0938 L 3402.6562 1486.375 L 3402.875 1509.625 L 3474.6875 1483.1562 C 3514.184 1468.596 3546.73 1456.6671 3547 1456.6562 C 3547.2702 1456.6464 3548.0079 1459.0443 3548.6562 1461.9688 C 3552.673 1480.0727 3570.5439 1492.9962 3589.7188 1491.6562 C 3604.9641 1490.5919 3618.5061 1480.656 3623.7812 1466.6562 C 3624.7976 1463.9605 3626.3132 1461.2343 3627.1562 1460.5938 C 3628.3783 1459.6644 3643.5294 1459.398 3701.6562 1459.375 L 3774.5938 1459.3438 L 3774.5938 1448.5312 L 3774.5938 1437.6875 L 3701.7188 1437.6875 C 3634.2222 1437.6875 3628.6032 1437.5577 3625.4375 1436.0938 C 3623.5285 1435.2106 3621.5614 1433.4798 3621 1432.1562 C 3619.5973 1428.8505 3611.6527 1420.9141 3607 1418.1875 C 3595.9174 1411.6926 3581.9127 1411.1954 3569.8438 1416.8438 C 3562.3238 1420.3619 3554.4947 1428.1748 3551.4375 1435.2188 C 3550.2181 1438.0273 3548.7786 1440.5066 3548.25 1440.7188 C 3547.7214 1440.9295 3515.4054 1429.3603 3476.4375 1415 C 3437.4696 1400.6395 3404.8924 1388.6504 3404.0312 1388.375 C 3402.5784 1387.9104 3402.4423 1389.5404 3402.2188 1411.1875 L 3401.9688 1434.5312 L 3399.75 1434.8438 C 3398.522 1435.0168 3396.7124 1435.71 3395.7188 1436.4062 C 3394.2049 1437.4669 3381.9706 1437.6875 3320.4688 1437.6875 L 3247.0625 1437.6875 L 3247.0625 1509.9375 L 3247.0625 1582.2188 L 3220.8438 1582.2188 C 3198.3935 1582.2188 3194.2827 1582.0106 3192.4062 1580.7812 C 3186.8792 1577.1603 3176.4069 1580.0775 3173.5625 1586.0312 L 3171.9375 1589.4375 L 3160.9688 1589.4375 L 3149.9688 1589.4375 L 3104.5938 1574.3125 L 3059.1875 1559.1875 L 3059.1875 1520.125 L 3059.1875 1481.0312 L 2791.8125 1481.0312 L 2524.4375 1481.0312 L 2524.4375 1571.375 L 2524.4375 1661.6875 L 2464.5938 1661.6875 L 2404.75 1661.6875 L 2403.125 1658.2812 C 2400.2748 1652.3469 2389.4958 1649.3576 2384.25 1653.0312 C 2382.3809 1654.341 2344.4327 1654.4686 1958.3125 1654.4688 L 1534.4062 1654.4688 L 1534.4062 1556.9062 L 1534.4062 1459.3438 L 1895.75 1459.3438 L 2257.0625 1459.3438 L 2257.0625 1051.0625 L 2257.0625 642.78125 L 2075.4688 642.78125 C 1911.0159 642.78125 1893.6722 642.64422 1891.6875 641.34375 C 1886.1603 637.72218 1875.6882 640.63997 1872.8438 646.59375 L 1871.1875 650 L 1860.2188 650 L 1849.25 650 L 1803.8438 634.875 L 1758.4375 619.75 L 1758.4375 602.34375 L 1758.4375 584.9375 L 1814.7188 585 L 1867.5 585.0625 L 1867.5 577.75 L 1860.0938 577.75 L 1849.25 577.75 L 1803.8438 562.625 L 1758.4375 547.5 L 1758.4375 530.09375 L 1758.4375 512.6875 L 1814.7188 512.71875 L 1867.5 512.78125 L 1867.5 505.46875 L 1860.0938 505.46875 L 1849.25 505.46875 L 1803.8438 490.34375 L 1758.4375 475.21875 L 1758.4375 457.8125 L 1758.4375 440.40625 L 1814.7188 440.46875 L 1867.5 440.53125 L 1867.5 433.21875 L 1860.0938 433.21875 L 1849.25 433.21875 L 1803.8438 418.09375 L 1758.4375 402.96875 L 1758.4375 363.90625 L 1758.4375 324.8125 L 1491.0625 324.8125 L 1223.6875 324.8125 L 1223.6875 415.15625 L 1223.6875 505.46875 L 1163.8438 505.46875 L 1104 505.46875 L 1102.375 502.09375 C 1099.5249 496.15883 1088.7776 493.13818 1083.5312 496.8125 C 1081.7038 498.09301 1074.6618 498.25 1018.9062 498.25 L 956.3125 498.25 L 956.3125 389.84375 L 956.3125 281.46875 L 945.46875 281.46875 L 934.625 281.46875 z M 1245.375 346.5 L 1491.0625 346.5 L 1736.75 346.5 L 1736.75 718.65625 L 1736.75 1090.8125 L 1599.4688 1090.8125 L 1462.1562 1090.8125 L 1462.1562 924.59375 L 1462.1562 758.40625 L 1353.75 758.40625 L 1245.375 758.40625 L 1245.375 552.4375 L 1245.375 346.5 z M 1470.375 387.9375 L 1465.6562 388.21875 L 1460.9375 388.5 L 1453.0938 399.96875 L 1445.25 411.46875 L 1437.4375 399.75 L 1429.625 388.03125 L 1425.0938 388.03125 L 1420.5938 388.03125 L 1430.4688 402.8125 L 1440.3438 417.625 L 1429.125 434.4375 L 1417.875 451.28125 L 1422.625 451.25 L 1427.375 451.25 L 1435.9688 438.1875 C 1440.688 431.00433 1444.8029 425.10375 1445.125 425.09375 C 1445.4473 425.08345 1449.5104 430.94347 1454.1562 438.125 L 1462.5938 451.1875 L 1467.4062 451.21875 L 1472.2188 451.28125 L 1461.7188 435.84375 C 1455.9425 427.36346 1451.0059 419.88593 1450.75 419.21875 C 1450.4939 418.55167 1454.8166 411.23658 1460.3438 402.96875 L 1470.375 387.9375 z M 1496.5625 388.03125 L 1495.2812 392.34375 C 1492.2595 402.44121 1475.4232 457.25203 1475.0312 458.28125 C 1474.7314 459.06982 1475.7149 459.40625 1478.2812 459.40625 C 1481.8836 459.40625 1481.9914 459.33005 1483.25 455.125 C 1491.6098 427.19311 1503.1475 390.14223 1503.6562 389.59375 C 1504.0122 389.2104 1509.2429 396.1396 1515.2812 404.96875 L 1526.25 421 L 1526.2812 436.15625 L 1526.2812 451.28125 L 1530.8125 451.28125 L 1535.3125 451.28125 L 1535.3125 436.03125 C 1535.3125 422.70849 1535.5351 420.54016 1536.9688 418.65625 C 1537.8697 417.4714 1542.9623 410.10603 1548.2812 402.28125 L 1557.9375 388.03125 L 1553.1875 388.0625 L 1548.4062 388.09375 L 1539.875 400.71875 C 1535.1813 407.66453 1531.1172 413.34375 1530.8438 413.34375 C 1530.5693 413.34175 1526.5017 407.65677 1521.7812 400.71875 L 1513.1875 388.09375 L 1504.875 388.0625 L 1496.5625 388.03125 z M 1674.3125 400.75 C 1673.3837 400.7354 1672.4488 400.7958 1671.4688 400.90625 C 1659.2568 402.28268 1653.2209 411.24308 1652.125 429.65625 C 1650.9844 448.82657 1656.5539 462.44974 1666.9062 465.75 C 1668.3048 466.19587 1671.705 466.45143 1674.4375 466.3125 C 1687.4514 465.65075 1693.8003 456.76567 1694.9375 437.65625 C 1696.2813 415.0728 1688.2441 400.96965 1674.3125 400.75 z M 1673.5312 408.375 C 1682.418 408.375 1685.7185 415.22609 1685.7188 433.65625 C 1685.7188 446.67586 1684.2568 452.97986 1680.3438 456.65625 C 1679.0068 457.91228 1676.5835 458.87206 1674.0625 459.15625 C 1670.3162 459.57853 1669.6822 459.37066 1666.8438 456.53125 C 1662.5113 452.19969 1661.3712 447.44736 1661.3438 433.65625 C 1661.3056 415.24181 1664.6328 408.375 1673.5312 408.375 z M 1758.4375 410.78125 L 1790.2812 421.375 C 1807.7939 427.21632 1822.7233 432.24057 1823.4688 432.53125 C 1824.213 432.82194 1809.8827 433.0862 1791.625 433.125 L 1758.4375 433.21875 L 1758.4375 422 L 1758.4375 410.78125 z M 1321.0312 474.75 C 1318.4239 474.75009 1313.0815 475.37987 1309.1875 476.125 C 1305.2935 476.87012 1301.9548 477.46875 1301.75 477.46875 C 1301.5454 477.46875 1301.375 479.10651 1301.375 481.09375 C 1301.375 483.081 1301.5454 484.6875 1301.75 484.6875 C 1301.9548 484.6875 1305.2935 484.08888 1309.1875 483.34375 C 1313.0815 482.59862 1316.3759 482.00009 1316.5 482 C 1316.6242 481.99991 1316.7188 492.96109 1316.7188 506.375 L 1316.7188 530.75 L 1309.9375 530.75 L 1303.1875 530.75 L 1303.1875 534.375 L 1303.1875 538 L 1321.25 538 L 1339.3125 538 L 1339.3125 534.375 L 1339.3125 530.75 L 1332.5312 530.75 L 1325.75 530.75 L 1325.75 502.75 L 1325.75 474.75 L 1321.0312 474.75 z M 1675.0938 474.75 C 1672.4851 474.75009 1667.1753 475.37987 1663.2812 476.125 C 1659.3881 476.87012 1656.0485 477.46875 1655.8438 477.46875 C 1655.6381 477.46875 1655.4679 479.10651 1655.4688 481.09375 C 1655.4678 483.081 1655.638 484.6875 1655.8438 484.6875 C 1656.0476 484.6875 1659.3874 484.08888 1663.2812 483.34375 C 1667.1762 482.59862 1670.4695 482.00009 1670.5938 482 C 1670.717 481.99991 1670.8125 492.96109 1670.8125 506.375 L 1670.8125 530.75 L 1664.0312 530.75 L 1657.2812 530.75 L 1657.2812 534.375 L 1657.2812 538 L 1675.3438 538 L 1693.4062 538 L 1693.4062 534.375 L 1693.4062 530.75 L 1686.625 530.75 L 1679.8438 530.75 L 1679.8438 502.75 L 1679.8438 474.75 L 1675.0938 474.75 z M 1758.4375 483.03125 L 1790.2812 493.65625 C 1807.7939 499.49758 1822.7232 504.52182 1823.4688 504.8125 C 1822.9398 505.08838 1809.0839 505.36915 1791.625 505.40625 L 1758.4375 505.46875 L 1758.4375 494.25 L 1758.4375 483.03125 z M 1223.6875 512.6875 L 1223.6875 545.21875 L 1223.6875 577.75 L 1163.8438 577.71875 L 1104 577.71875 L 1102.375 574.34375 C 1099.5248 568.40885 1088.7776 565.38817 1083.5312 569.0625 C 1081.7038 570.34301 1074.6615 570.5 1018.9062 570.5 L 956.3125 570.5 L 956.3125 545.21875 L 956.3125 519.9375 L 1018.4375 519.9375 C 1072.3814 519.9375 1080.809 520.09695 1082.5 521.28125 C 1088.6375 525.58012 1099.326 522.89833 1102.375 516.28125 L 1104 512.75 L 1163.8438 512.71875 L 1223.6875 512.6875 z M 1317.4062 552.625 C 1313.3048 552.5959 1308.8068 553.35416 1304.0938 554.96875 L 1299.125 556.65625 L 1298.8438 561.28125 L 1298.5625 565.90625 L 1304.0312 563.15625 C 1314.2072 558.07171 1323.6707 558.91756 1327.5312 565.25 C 1329.7812 568.9395 1329.839 572.56959 1327.6875 577.28125 C 1325.9607 581.06307 1314.804 593.9395 1304.625 603.90625 C 1299.1085 609.30794 1298.6562 610.05329 1298.6562 613.625 L 1298.6562 617.46875 L 1318.5312 617.46875 L 1338.4062 617.46875 L 1338.4062 613.875 L 1338.4062 610.25 L 1323.3438 610.25 L 1308.2812 610.25 L 1321.0625 597.25 C 1334.5335 583.57758 1338.3973 577.85531 1338.4062 571.40625 C 1338.4203 559.79327 1329.7124 552.71218 1317.4062 552.625 z M 1671.5 552.625 C 1667.3982 552.5959 1662.9007 553.35416 1658.1875 554.96875 L 1653.2188 556.65625 L 1652.9375 561.28125 L 1652.6562 565.90625 L 1658.125 563.15625 C 1668.3001 558.07171 1677.7641 558.91756 1681.625 565.25 C 1683.8743 568.9395 1683.9327 572.56959 1681.7812 577.28125 C 1680.0548 581.06307 1668.8979 593.9395 1658.7188 603.90625 C 1653.2012 609.30794 1652.75 610.05329 1652.75 613.625 L 1652.75 617.46875 L 1672.625 617.46875 L 1692.5 617.46875 L 1692.5 613.875 L 1692.5 610.25 L 1677.4375 610.25 L 1662.375 610.25 L 1675.1562 597.25 C 1688.6281 583.57758 1692.4581 577.85531 1692.4688 571.40625 C 1692.4826 559.79327 1683.8055 552.71218 1671.5 552.625 z M 1758.4375 555.28125 L 1790.2812 565.90625 C 1807.7939 571.74757 1822.7233 576.77182 1823.4688 577.0625 C 1824.213 577.35318 1809.8827 577.61745 1791.625 577.65625 L 1758.4375 577.75 L 1758.4375 566.5 L 1758.4375 555.28125 z M 1223.6875 584.96875 L 1223.6875 617.46875 L 1223.6875 650 L 1163.8438 650 L 1104 649.96875 L 1102.375 646.59375 C 1099.5248 640.65884 1088.7776 637.66942 1083.5312 641.34375 C 1081.7038 642.62426 1074.6618 642.78125 1018.9062 642.78125 L 956.3125 642.78125 L 956.3125 617.46875 L 956.3125 592.1875 L 1018.4375 592.1875 C 1072.3814 592.1875 1080.809 592.3782 1082.5 593.5625 C 1088.6375 597.86136 1099.326 595.14832 1102.375 588.53125 L 1104 585 L 1163.8438 585 L 1223.6875 584.96875 z M 1671.5938 624.90625 C 1666.957 624.90825 1661.6482 625.48338 1657.9375 626.53125 C 1654.7434 627.4331 1654.5625 627.70079 1654.5625 631.125 C 1654.5625 634.16395 1654.8023 634.68204 1656.125 634.28125 C 1672.5296 629.31088 1683.4895 632.61021 1683.4375 642.5 C 1683.4025 649.07435 1678.3748 652.71875 1669.25 652.71875 L 1663.5938 652.71875 L 1663.5938 656.3125 L 1663.5938 659.9375 L 1669.25 659.96875 C 1679.2693 660.00385 1685.2812 664.39702 1685.2812 671.6875 C 1685.2822 675.65611 1683.0282 679.51511 1679.625 681.375 C 1675.6663 683.53824 1661.0342 683.5326 1656.125 681.375 L 1652.75 679.90625 L 1652.75 683.875 C 1652.75 688.16691 1652.5005 687.99795 1661.3438 690.03125 C 1664.8329 690.83365 1674.3746 690.64579 1678.8438 689.6875 C 1695.5735 686.09934 1700.0909 665.34873 1685.7188 658.09375 L 1681.2188 655.84375 L 1684.7812 654.03125 C 1686.7432 653.04947 1689.1126 651.18451 1690.0625 649.875 C 1692.2677 646.83489 1693.0065 640.31067 1691.625 636.125 C 1690.1528 631.66418 1684.3731 626.91157 1678.75 625.5625 C 1676.929 625.12567 1674.3749 624.90518 1671.5938 624.90625 z M 1333.9062 626.4375 L 1328.375 626.6875 L 1322.875 626.96875 L 1309.875 646.84375 C 1297.8124 665.29765 1296.895 667.01567 1296.875 671 L 1296.8438 675.28125 L 1310.8438 675.28125 L 1324.8438 675.28125 L 1324.8438 682.53125 L 1324.8438 689.75 L 1329.375 689.75 L 1333.9062 689.75 L 1333.9062 682.53125 L 1333.9062 675.28125 L 1338.4062 675.28125 L 1342.9375 675.28125 L 1342.9375 671.6875 L 1342.9375 668.0625 L 1338.4062 668.0625 L 1333.9062 668.0625 L 1333.9062 647.25 L 1333.9062 626.4375 z M 1758.4375 627.5625 L 1790.2812 638.1875 C 1807.7939 644.02882 1822.7233 649.02182 1823.4688 649.3125 C 1824.213 649.60318 1809.8827 649.8987 1791.625 649.9375 L 1758.4375 650 L 1758.4375 638.78125 L 1758.4375 627.5625 z M 1324.5312 634.71875 C 1324.7142 634.51182 1324.8438 641.945 1324.8438 651.21875 L 1324.8438 668.0625 L 1314.4688 668.0625 C 1308.755 668.0625 1304.0938 667.89924 1304.0938 667.6875 C 1304.0938 667.33143 1323.7881 635.56126 1324.5312 634.71875 z M 1223.6875 657.21875 L 1223.6875 760.125 L 1223.6875 863.03125 L 1173.7812 846.40625 C 1146.3387 837.255 1123.5965 829.75 1123.2188 829.75 C 1122.8402 829.75 1122.5321 838.09664 1122.5312 848.28125 L 1122.5312 866.78125 L 1120.3438 866.78125 C 1118.4851 866.78125 1118.0521 866.23703 1117.5 862.96875 C 1116.6452 857.90931 1111.3902 850.58309 1106.0312 847.03125 C 1093.1313 838.48059 1075.2168 841.99805 1066.75 854.75 L 1063.5625 859.5625 L 1009.9375 859.5625 L 956.3125 859.5625 L 956.3125 762 L 956.3125 664.4375 L 1018.4375 664.4375 C 1072.3814 664.4375 1080.8091 664.62818 1082.5 665.8125 C 1088.6375 670.11135 1099.326 667.42956 1102.375 660.8125 L 1104 657.28125 L 1163.8438 657.25 L 1223.6875 657.21875 z M 1687.9688 698.6875 L 1682.4688 698.96875 L 1676.9688 699.21875 L 1663.9688 719.09375 C 1651.9053 737.54764 1650.9883 739.26566 1650.9688 743.25 L 1650.9375 747.5625 L 1664.9375 747.5625 L 1678.9375 747.5625 L 1678.9375 754.78125 L 1678.9375 762 L 1683.4688 762 L 1687.9688 762 L 1687.9688 754.78125 L 1687.9688 747.5625 L 1692.5 747.5625 L 1697 747.5625 L 1697 743.9375 L 1697 740.34375 L 1692.5 740.34375 L 1687.9688 740.34375 L 1687.9688 719.5 L 1687.9688 698.6875 z M 1758.4375 699.8125 L 1790.2812 710.4375 C 1807.7939 716.27882 1822.7233 721.30308 1823.4688 721.59375 C 1824.213 721.88443 1809.8827 722.1487 1791.625 722.1875 L 1758.4375 722.25 L 1758.4375 711.03125 L 1758.4375 699.8125 z M 1678.625 706.96875 C 1678.8077 706.76182 1678.9375 714.19501 1678.9375 723.46875 L 1678.9375 740.34375 L 1668.5625 740.34375 C 1662.8491 740.34375 1658.1875 740.14923 1658.1875 739.9375 C 1658.1875 739.58142 1677.8816 707.81127 1678.625 706.96875 z M 1655.4688 771.03125 L 1655.4688 786.71875 L 1655.4688 802.40625 L 1660.1875 801.15625 C 1667.1193 799.35824 1672.5127 799.62018 1677.0938 801.96875 C 1686.8773 806.98536 1686.8582 820.82685 1677.0625 825.96875 C 1673.7447 827.70968 1672.0722 828.0042 1667.1875 827.6875 C 1663.9502 827.47758 1659.3831 826.47783 1657.0312 825.4375 L 1652.75 823.53125 L 1652.75 827.96875 C 1652.75 832.33202 1652.789 832.39366 1656.125 833.25 C 1657.9881 833.72819 1660.3501 834.33388 1661.3438 834.59375 C 1662.3364 834.8536 1666.6113 834.9656 1670.8438 834.8125 C 1679.714 834.49137 1684.2594 832.64071 1688.7188 827.5625 C 1696.7206 818.44882 1694.0662 801.80668 1683.6562 795.6875 C 1679.9243 793.49305 1678.4578 793.15625 1671.9375 793.15625 L 1664.5 793.15625 L 1664.5 785.71875 L 1664.5 778.28125 L 1676.6875 778.28125 L 1688.875 778.28125 L 1688.875 774.65625 L 1688.875 771.03125 L 1672.1875 771.03125 L 1655.4688 771.03125 z M 1758.4375 772.09375 L 1790.2812 782.71875 C 1807.7939 788.56006 1822.7233 793.55307 1823.4688 793.84375 C 1824.213 794.13442 1809.8827 794.42995 1791.625 794.46875 L 1758.4375 794.53125 L 1758.4375 783.3125 L 1758.4375 772.09375 z M 1245.375 780.0625 L 1342.9375 780.0625 L 1440.4688 780.0625 L 1440.4688 935.4375 L 1440.4688 1090.8125 L 1342.9375 1090.8125 L 1245.375 1090.8125 L 1245.375 935.4375 L 1245.375 780.0625 z M 1130.8438 840 C 1130.986 839.992 1131.1302 840.004 1131.3125 840.0625 C 1132.182 840.34063 1150.3872 846.45638 1171.75 853.625 L 1210.5938 866.65625 L 1170.1562 866.71875 L 1129.75 866.78125 L 1129.75 853.1875 C 1129.75 842.20397 1129.8429 840.05399 1130.8438 840 z M 1678.2812 841.75 C 1673.9216 841.7726 1669.4957 842.58201 1666.5938 844.0625 C 1661.726 846.54566 1656.869 852.32479 1654.375 858.59375 C 1651.6134 865.53491 1651.4263 883.52628 1654.0312 891.46875 C 1656.1354 897.88331 1661.6793 904.30098 1666.75 906.15625 C 1675.978 909.53275 1687.5544 905.67568 1692.25 897.6875 C 1694.4642 893.92096 1694.76 892.52812 1694.75 885.75 C 1694.74 879.59378 1694.339 877.33076 1692.75 874.34375 C 1689.1683 867.61141 1683.1218 864.10545 1675.1562 864.09375 C 1670.6173 864.08675 1667.3273 865.45956 1663.7188 868.875 L 1660.6562 871.75 L 1661.2812 867.25 C 1661.6158 864.76595 1662.9724 860.48246 1664.3125 857.75 C 1666.2501 853.79926 1667.5762 852.36626 1670.7812 850.75 C 1675.7191 848.26035 1680.2167 848.18821 1686.2188 850.46875 L 1690.7812 852.1875 L 1690.5 847.96875 L 1690.25 843.75 L 1685.7188 842.59375 C 1683.486 842.01231 1680.8972 841.73647 1678.2812 841.75 z M 1758.4375 844.34375 L 1790.2812 854.96875 C 1807.7939 860.81006 1822.7233 865.83432 1823.4688 866.125 C 1824.213 866.41568 1809.8827 866.67995 1791.625 866.71875 L 1758.4375 866.78125 L 1758.4375 855.5625 L 1758.4375 844.34375 z M 1673.7188 871.40625 C 1675.5884 871.40825 1677.5771 871.85584 1679.5938 872.8125 C 1685.5753 875.65136 1687.972 885.78579 1684.4688 893.5 C 1683.3382 895.98731 1681.7463 897.66578 1679.5938 898.6875 C 1670.2792 903.10704 1661.8125 896.94866 1661.8125 885.75 C 1661.8125 877.09257 1667.0377 871.39937 1673.7188 871.40625 z M 1118.2188 874 L 1170.9688 874 L 1223.6875 874 L 1223.6875 904.65625 L 1223.6875 935.28125 L 1173.7812 918.65625 C 1146.3383 909.50499 1123.5959 902.03125 1123.2188 902.03125 C 1122.8402 902.03125 1122.5321 910.34663 1122.5312 920.53125 L 1122.5312 939.0625 L 1113.25 939.03125 L 1104 939 L 1102.4062 935.84375 C 1101.066 933.14885 1100.8429 930.00354 1100.8438 915.21875 L 1100.8438 897.8125 L 1105.75 894.4375 C 1111.6232 890.39247 1116.8039 883.12541 1117.625 877.84375 L 1118.2188 874 z M 956.3125 881.21875 L 1009.8438 881.25 L 1063.3438 881.25 L 1066.4062 886 C 1068.1281 888.67881 1071.5645 892.21923 1074.3125 894.15625 L 1079.1562 897.59375 L 1079.1562 915.84375 C 1079.1572 931.09414 1078.9178 934.4755 1077.7188 936.1875 C 1074.3424 941.0067 1076.923 951.75975 1082.1875 954.78125 C 1089.5447 959.00385 1099.255 956.61485 1102.375 949.84375 L 1104 946.3125 L 1163.8438 946.3125 L 1223.6875 946.28125 L 1223.6875 978.8125 L 1223.6875 1011.3125 L 1163.8438 1011.3125 L 1104 1011.2812 L 1102.375 1007.9062 C 1099.5248 1001.9715 1088.7782 998.9825 1083.5312 1002.6562 C 1081.7038 1003.937 1074.6615 1004.0938 1018.9062 1004.0938 L 956.3125 1004.0938 L 956.3125 942.65625 L 956.3125 881.21875 z M 1344.4062 906.71875 C 1339.7586 906.72915 1335.1651 907.62923 1332.5938 909.21875 C 1326.1817 913.18104 1324.0739 921.47697 1327.625 928.8125 L 1329.5 932.65625 L 1326.3438 935.4375 C 1319.8696 941.1213 1317.1968 950.04885 1319.5 958.34375 C 1320.8406 963.17095 1327.2166 969.3139 1332.6875 971.0625 C 1341.5098 973.8822 1355.5488 971.1525 1360.0312 965.75 C 1361.0982 964.4658 1361.5766 964.705 1364.3438 967.9375 C 1367.3456 971.4445 1367.6373 971.5625 1373 971.5625 L 1378.5625 971.5625 L 1372.375 965.34375 L 1366.1562 959.09375 L 1368.125 956.34375 C 1370.8303 952.54455 1374.2341 944.6866 1374.9375 940.625 L 1375.5312 937.25 L 1371.5 937.25 L 1367.4688 937.25 L 1366.8438 941.09375 C 1366.1553 945.30005 1362.9313 953.5 1361.9688 953.5 C 1360.3972 953.5 1334.8742 926.62167 1334.3125 924.375 C 1333.3577 920.55642 1334.5488 917.483 1337.75 915.53125 C 1341.4393 913.28169 1346.1211 913.2686 1352.4688 915.5 L 1357.4688 917.28125 L 1357.1875 913.09375 L 1356.9375 908.90625 L 1352.4062 907.6875 C 1350.0034 907.03801 1347.1955 906.71249 1344.4062 906.71875 z M 1481.125 908.34375 L 1481.125 939.96875 L 1481.125 971.5625 L 1501.4375 971.5625 L 1521.7812 971.5625 L 1521.7812 967.96875 L 1521.7812 964.34375 L 1505.9688 964.34375 L 1490.1562 964.34375 L 1490.1562 953.0625 L 1490.1562 941.75 L 1505.0625 941.75 L 1519.9688 941.75 L 1519.9688 938.15625 L 1519.9688 934.53125 L 1505.0625 934.53125 L 1490.1562 934.53125 L 1490.1562 925.0625 L 1490.1562 915.5625 L 1505.5 915.5625 L 1520.875 915.5625 L 1520.875 911.96875 L 1520.875 908.34375 L 1501 908.34375 L 1481.125 908.34375 z M 1536.2188 908.34375 L 1536.2188 939.96875 L 1536.2188 971.5625 L 1540.75 971.5625 L 1545.25 971.5625 L 1545.3125 945.15625 L 1545.375 918.71875 L 1558.625 945.15625 L 1571.9062 971.5625 L 1578 971.5625 L 1584.0938 971.5625 L 1584.0938 939.96875 L 1584.0938 908.34375 L 1579.5938 908.34375 L 1575.0625 908.34375 L 1575.0312 934.75 L 1574.9688 961.1875 L 1561.6875 934.75 L 1548.4375 908.34375 L 1542.3438 908.34375 L 1536.2188 908.34375 z M 1130.8438 912.25 C 1130.986 912.242 1131.1302 912.28545 1131.3125 912.34375 C 1132.182 912.62187 1150.3872 918.7064 1171.75 925.875 L 1210.5938 938.90625 L 1170.1562 938.96875 L 1129.75 939.0625 L 1129.75 925.4375 C 1129.75 914.45397 1129.8428 912.30398 1130.8438 912.25 z M 1652.75 915.5625 L 1652.75 919.1875 L 1652.75 922.78125 L 1667.6562 922.78125 C 1675.9035 922.78125 1682.5625 923.14319 1682.5625 923.59375 C 1682.5625 924.04152 1678.4578 935.12835 1673.4375 948.21875 C 1668.4173 961.30895 1663.7649 973.54325 1663.0938 975.40625 L 1661.875 978.8125 L 1666.25 978.8125 C 1669.5825 978.8125 1670.7775 978.42155 1671.25 977.21875 C 1679.9113 955.17265 1693.4062 918.7256 1693.4062 917.375 C 1693.4062 915.62559 1692.7731 915.5625 1673.0625 915.5625 L 1652.75 915.5625 z M 1758.4375 916.625 L 1790.2812 927.21875 C 1807.7939 933.06008 1822.7229 938.0843 1823.4688 938.375 C 1824.213 938.6657 1809.8827 938.92975 1791.625 938.96875 L 1758.4375 939.0625 L 1758.4375 927.84375 L 1758.4375 916.625 z M 1334.3438 937.15625 L 1345.625 948.53125 L 1356.9375 959.90625 L 1354.7188 961.59375 C 1353.505 962.51815 1351.0126 963.7031 1349.1875 964.25 C 1332.2506 969.3244 1319.7925 953.36815 1330.9688 940.90625 L 1334.3438 937.15625 z M 3417.375 1408.75 C 3418.3839 1408.75 3523.961 1447.8187 3524.625 1448.4375 C 3525.0102 1448.7966 3502.8675 1457.3717 3475.4062 1467.4688 C 3447.9453 1477.5657 3423.5474 1486.5562 3421.1875 1487.4688 L 3416.875 1489.125 L 3416.875 1448.9375 C 3416.875 1426.8366 3417.1119 1408.75 3417.375 1408.75 z M 3585.4688 1427.6562 C 3593.8524 1427.322 3603.2829 1431.4717 3606.75 1437.4375 C 3612.2687 1443.4257 3613.031 1458.8026 3607.4375 1466.1562 C 3604.0782 1471.0394 3598.1519 1475.2593 3592.9062 1476.4688 C 3585.7162 1478.1264 3579.5267 1476.9914 3573.0625 1472.8438 C 3554.8613 1461.1635 3560.5534 1432.5929 3581.9688 1428.0938 C 3583.1026 1427.8546 3584.2709 1427.7041 3585.4688 1427.6562 z M 1100.8438 1459.3438 L 1270.6562 1459.3438 L 1440.4688 1459.3438 L 1440.4688 1603.875 L 1440.4688 1748.4062 L 1910.9062 1748.4062 C 2328.9745 1748.4062 2381.5194 1748.5693 2383.25 1749.7812 C 2389.3875 1754.0811 2400.0759 1751.3671 2403.125 1744.75 L 2404.75 1741.2188 L 2464.5938 1741.1875 L 2524.4375 1741.1875 L 2524.4375 1773.6875 L 2524.4375 1806.2188 L 2464.5938 1806.1875 L 2404.75 1806.1875 L 2403.125 1802.8125 C 2400.2748 1796.8777 2389.4958 1793.8882 2384.25 1797.5625 C 2382.4544 1798.8203 2377.5671 1799 2344.9375 1799 L 2307.625 1799 L 2307.625 1899.625 L 2307.625 2000.2188 L 2303.0312 2003.1875 C 2300.2931 2004.9448 2297.1355 2008.0978 2295.25 2010.9375 C 2286.5303 2024.0706 2289.8176 2041.1793 2302.8125 2050.375 L 2307.625 2053.7812 L 2307.625 2063.1562 L 2307.625 2072.5 L 2303.0312 2075.4688 C 2300.2931 2077.226 2297.1355 2080.3477 2295.25 2083.1875 C 2286.5303 2096.3205 2289.8176 2113.4292 2302.8125 2122.625 L 2307.625 2126.0625 L 2307.625 2143.1875 L 2307.6562 2143.1875 L 2307.6562 2160.3125 L 2282.375 2160.3125 L 2257.0625 2160.3125 L 2257.0625 2088.0312 L 2257.0625 2015.7812 L 2156.8438 2015.7812 L 2056.625 2015.7812 L 2053.1875 2010.9062 C 2051.2505 2008.1591 2047.711 2004.7208 2045.0312 2003 L 2040.2812 1999.9688 L 2040.2812 1935.625 L 2040.2812 1871.25 L 1921.9688 1871.25 L 1803.6875 1871.25 L 1736.25 1846.4062 C 1699.1673 1832.7441 1668.6662 1821.5625 1668.4688 1821.5625 C 1668.2713 1821.5625 1668.125 1832.7448 1668.125 1846.4062 L 1668.125 1871.25 L 1392.6562 1871.25 L 1117.1875 1871.25 L 1113.75 1866.4062 C 1111.8131 1863.6589 1108.2722 1860.2208 1105.5938 1858.5 L 1100.875 1855.4375 L 1100.8438 1657.4062 L 1100.8438 1459.3438 z M 1462.1562 1459.3438 L 1487.4375 1459.3438 L 1512.75 1459.3438 L 1512.75 1567.75 L 1512.75 1676.1562 L 1947.0312 1676.1562 C 2332.8756 1676.1572 2381.5199 1676.2882 2383.25 1677.5 C 2389.3875 1681.7989 2400.0759 1679.1171 2403.125 1672.5 L 2404.75 1668.9688 L 2464.5938 1668.9375 L 2524.4375 1668.9062 L 2524.4375 1701.4375 L 2524.4375 1733.9375 L 2464.5938 1733.9375 L 2404.75 1733.9375 L 2403.125 1730.5625 C 2400.2748 1724.6276 2389.4958 1721.6071 2384.25 1725.2812 C 2382.3804 1726.591 2341.3442 1726.7188 1922.1875 1726.7188 L 1462.1562 1726.7188 L 1462.1562 1593.0312 L 1462.1562 1459.3438 z M 2546.0938 1502.7188 L 2791.8125 1502.7188 L 3037.5 1502.7188 L 3037.5 1874.875 L 3037.5 2247.0312 L 2900.1875 2247.0312 L 2762.9062 2247.0312 L 2762.9062 2080.8125 L 2762.9062 1914.5938 L 2654.5 1914.5938 L 2546.0938 1914.5938 L 2546.0938 1708.6562 L 2546.0938 1502.7188 z M 2771.125 1544.1562 L 2766.4062 1544.4375 L 2761.6875 1544.7188 L 2753.8125 1556.1875 L 2745.9688 1567.6875 L 2738.1875 1555.9688 L 2730.375 1544.25 L 2725.8438 1544.25 L 2721.3125 1544.25 L 2731.1875 1559.0312 L 2741.0938 1573.8125 L 2729.8438 1590.6562 L 2718.625 1607.5 L 2723.375 1607.4688 L 2728.125 1607.4375 L 2736.7188 1594.375 C 2741.438 1587.1918 2745.5528 1581.3235 2745.875 1581.3125 C 2746.1972 1581.3025 2750.2605 1587.1619 2754.9062 1594.3438 L 2763.3438 1607.4062 L 2768.1562 1607.4375 L 2772.9688 1607.5 L 2762.4688 1592.0625 C 2756.6923 1583.5822 2751.7559 1576.1046 2751.5 1575.4375 C 2751.244 1574.7704 2755.5359 1567.4554 2761.0625 1559.1875 L 2771.125 1544.1562 z M 2797.2812 1544.25 L 2796 1548.5625 C 2792.9779 1558.6599 2776.1725 1613.4709 2775.7812 1614.5 C 2775.4815 1615.2886 2776.4647 1615.625 2779.0312 1615.625 C 2782.6328 1615.625 2782.7415 1615.5489 2784 1611.3438 C 2792.3599 1583.4117 2803.8661 1546.3609 2804.375 1545.8125 C 2804.7309 1545.4291 2809.9615 1552.3583 2816 1561.1875 L 2827 1577.2188 L 2827 1592.375 L 2827.0312 1607.5 L 2831.5625 1607.5 L 2836.0625 1607.5 L 2836.0625 1592.25 C 2836.0625 1578.9272 2836.2849 1576.759 2837.7188 1574.875 C 2838.6199 1573.6902 2843.7121 1566.3247 2849.0312 1558.5 L 2858.6875 1544.25 L 2853.9375 1544.2812 L 2849.1562 1544.2812 L 2840.625 1556.9062 C 2835.9313 1563.8528 2831.8681 1569.5322 2831.5938 1569.5312 C 2831.3193 1569.5312 2827.2511 1563.8754 2822.5312 1556.9375 L 2813.9375 1544.3125 L 2805.625 1544.2812 L 2797.2812 1544.25 z M 3417.375 1553.2812 C 3418.3839 1553.2812 3523.961 1592.3499 3524.625 1592.9688 C 3525.0102 1593.327 3502.8675 1601.871 3475.4062 1611.9688 C 3447.9453 1622.0657 3423.5474 1631.0877 3421.1875 1632 L 3416.875 1633.6562 L 3416.875 1593.4688 C 3416.875 1571.367 3417.1119 1553.2817 3417.375 1553.2812 z M 2973.6562 1556.9688 C 2973.1762 1556.9878 2972.6776 1557.0386 2972.1875 1557.0938 C 2959.9757 1558.4697 2953.9709 1567.4619 2952.875 1585.875 C 2951.7343 1605.0454 2957.3038 1618.6684 2967.6562 1621.9688 C 2969.0548 1622.4139 2972.455 1622.6702 2975.1875 1622.5312 C 2988.2015 1621.87 2994.5504 1612.9844 2995.6875 1593.875 C 2997.0314 1571.2915 2988.9939 1557.1873 2975.0625 1556.9688 C 2974.5981 1556.9588 2974.1364 1556.9497 2973.6562 1556.9688 z M 2974.2812 1564.5938 C 2983.1674 1564.5928 2986.4688 1571.4448 2986.4688 1589.875 C 2986.4688 1602.8945 2984.9759 1609.1986 2981.0625 1612.875 C 2979.7257 1614.131 2977.3336 1615.0908 2974.8125 1615.375 C 2971.0662 1615.7971 2970.433 1615.5895 2967.5938 1612.75 C 2963.2622 1608.4185 2962.1208 1603.6661 2962.0938 1589.875 C 2962.0567 1571.4605 2965.3831 1564.5938 2974.2812 1564.5938 z M 3059.1875 1566.9688 L 3091.0312 1577.5938 C 3108.544 1583.4342 3123.4734 1588.4592 3124.2188 1588.75 C 3124.9639 1589.0407 3110.6328 1589.3047 3092.375 1589.3438 L 3059.1875 1589.4375 L 3059.1875 1578.1875 L 3059.1875 1566.9688 z M 3585.4688 1572.1875 C 3593.8524 1571.8527 3603.2829 1575.9717 3606.75 1581.9375 C 3616.8742 1600.9766 3605.6922 1617.4455 3592.9062 1621 C 3585.7162 1622.6578 3579.5267 1621.5231 3573.0625 1617.375 C 3554.8613 1605.6954 3560.5534 1577.0937 3581.9688 1572.5938 C 3583.1026 1572.3546 3584.2709 1572.2353 3585.4688 1572.1875 z M 2621.75 1630.9688 C 2619.1418 1630.9688 2613.8316 1631.5983 2609.9375 1632.3438 C 2606.0435 1633.0881 2602.7047 1633.6875 2602.5 1633.6875 C 2602.2953 1633.6875 2602.125 1635.3254 2602.125 1637.3125 C 2602.125 1639.2999 2602.2953 1640.9065 2602.5 1640.9062 C 2602.7047 1640.9062 2606.0435 1640.3076 2609.9375 1639.5625 C 2613.8316 1638.8173 2617.1259 1638.1876 2617.25 1638.1875 C 2617.3743 1638.1874 2617.4688 1649.1798 2617.4688 1662.5938 L 2617.4688 1686.9688 L 2610.6875 1686.9688 L 2603.9062 1686.9688 L 2603.9062 1690.5938 L 2603.9062 1694.2188 L 2622 1694.2188 L 2640.0625 1694.2188 L 2640.0625 1690.5938 L 2640.0625 1686.9688 L 2633.2812 1686.9688 L 2626.5 1686.9688 L 2626.5 1658.9688 L 2626.5 1630.9688 L 2621.75 1630.9688 z M 2975.8438 1630.9688 C 2973.235 1630.9688 2967.9253 1631.5983 2964.0312 1632.3438 C 2960.1373 1633.0881 2956.7673 1633.6875 2956.5625 1633.6875 C 2956.3579 1633.6875 2956.2188 1635.3254 2956.2188 1637.3125 C 2956.2186 1639.2999 2956.3579 1640.9065 2956.5625 1640.9062 C 2956.7673 1640.9062 2960.1374 1640.3076 2964.0312 1639.5625 C 2967.9253 1638.8173 2971.2195 1638.1876 2971.3438 1638.1875 C 2971.4677 1638.1874 2971.5625 1649.1798 2971.5625 1662.5938 L 2971.5625 1686.9688 L 2964.7812 1686.9688 L 2958 1686.9688 L 2958 1690.5938 L 2958 1694.2188 L 2976.0625 1694.2188 L 2994.1562 1694.2188 L 2994.1562 1690.5938 L 2994.1562 1686.9688 L 2987.375 1686.9688 L 2980.5938 1686.9688 L 2980.5938 1658.9688 L 2980.5938 1630.9688 L 2975.8438 1630.9688 z M 3059.1875 1639.25 L 3091.0312 1649.875 C 3108.544 1655.7164 3123.4734 1660.7092 3124.2188 1661 C 3124.9639 1661.2907 3110.6328 1661.586 3092.375 1661.625 L 3059.1875 1661.6875 L 3059.1875 1650.4688 L 3059.1875 1639.25 z M 3417.375 1697.8125 C 3418.3839 1697.8125 3523.961 1736.8813 3524.625 1737.5 C 3525.0102 1737.8591 3502.8675 1746.4027 3475.4062 1756.5 C 3447.9453 1766.597 3423.5474 1775.6196 3421.1875 1776.5312 L 3416.875 1778.1875 L 3416.875 1738 C 3416.875 1715.8991 3417.1119 1697.8125 3417.375 1697.8125 z M 2618.125 1708.8438 C 2614.0231 1708.8148 2609.5257 1709.5729 2604.8125 1711.1875 L 2599.8438 1712.875 L 2599.5938 1717.5 L 2599.3125 1722.0938 L 2604.75 1719.375 C 2614.9251 1714.2905 2624.4203 1715.1357 2628.2812 1721.4688 C 2630.5305 1725.1581 2630.589 1728.7882 2628.4375 1733.5 C 2626.7107 1737.2818 2615.554 1750.1581 2605.375 1760.125 C 2599.8584 1765.5267 2599.4062 1766.2715 2599.4062 1769.8438 L 2599.4062 1773.6875 L 2619.2812 1773.6875 L 2639.1562 1773.6875 L 2639.1562 1770.0938 L 2639.1562 1766.4688 L 2624.0938 1766.4688 L 2609.0312 1766.4688 L 2621.8125 1753.4688 C 2635.2834 1739.7955 2639.115 1734.0741 2639.125 1727.625 C 2639.139 1716.012 2630.4306 1708.9308 2618.125 1708.8438 z M 2972.2188 1708.8438 C 2968.1163 1708.8148 2963.6195 1709.5729 2958.9062 1711.1875 L 2953.9375 1712.875 L 2953.6875 1717.5 L 2953.4062 1722.0938 L 2958.8438 1719.375 C 2969.0185 1714.2905 2978.5141 1715.1357 2982.375 1721.4688 C 2984.6242 1725.1581 2984.6827 1728.7882 2982.5312 1733.5 C 2980.8048 1737.2818 2969.6475 1750.1581 2959.4688 1760.125 C 2953.9522 1765.5267 2953.5 1766.2715 2953.5 1769.8438 L 2953.5 1773.6875 L 2973.375 1773.6875 L 2993.25 1773.6875 L 2993.25 1770.0938 L 2993.25 1766.4688 L 2978.1875 1766.4688 L 2963.125 1766.4688 L 2975.9062 1753.4688 C 2989.3774 1739.7955 2993.2087 1734.0741 2993.2188 1727.625 C 2993.2328 1716.012 2984.5243 1708.9308 2972.2188 1708.8438 z M 3059.1875 1711.5 L 3091.0312 1722.125 C 3108.544 1727.9662 3123.4734 1732.991 3124.2188 1733.2812 C 3124.9639 1733.572 3110.6328 1733.836 3092.375 1733.875 L 3059.1875 1733.9375 L 3059.1875 1722.7188 L 3059.1875 1711.5 z M 3585.9375 1716.6875 C 3586.388 1716.6775 3586.826 1716.6715 3587.2812 1716.6875 C 3595.1735 1716.9579 3603.5305 1720.9283 3606.75 1726.4688 C 3613 1739.9992 3613 1739.9992 3607.4375 1755.2188 C 3604.0782 1760.101 3598.1519 1764.2906 3592.9062 1765.5 C 3585.7162 1767.1578 3579.5267 1766.0545 3573.0625 1761.9062 C 3554.8613 1750.2269 3560.5534 1721.625 3581.9688 1717.125 C 3583.244 1716.8569 3584.5859 1716.718 3585.9375 1716.6875 z M 2972.3438 1781.125 C 2967.7069 1781.125 2962.3982 1781.7021 2958.6875 1782.75 C 2955.4934 1783.6519 2955.3125 1783.9195 2955.3125 1787.3438 C 2955.3125 1790.3827 2955.5522 1790.9007 2956.875 1790.5 C 2973.2794 1785.5295 2984.2395 1788.8286 2984.1875 1798.7188 C 2984.1525 1805.2921 2979.0935 1808.9375 2969.9688 1808.9375 L 2964.3438 1808.9375 L 2964.3438 1812.5312 L 2964.3438 1816.1562 L 2969.9688 1816.1562 C 2979.9877 1816.1914 2986 1820.6167 2986 1827.9062 C 2986 1831.8758 2983.747 1835.7332 2980.3438 1837.5938 C 2976.385 1839.7568 2961.7841 1839.7514 2956.875 1837.5938 L 2953.5 1836.125 L 2953.5 1840.0938 C 2953.5 1844.3846 2953.22 1844.2167 2962.0625 1846.25 C 2965.5521 1847.0523 2975.1251 1846.865 2979.5938 1845.9062 C 2996.3245 1842.3188 3000.8416 1821.5674 2986.4688 1814.3125 L 2981.9375 1812.0312 L 2985.5 1810.25 C 2987.4613 1809.2681 2989.8626 1807.4029 2990.8125 1806.0938 C 2993.0178 1803.053 2993.7564 1796.5291 2992.375 1792.3438 C 2990.9028 1787.8827 2985.092 1783.1304 2979.4688 1781.7812 C 2977.6478 1781.3451 2975.1256 1781.1239 2972.3438 1781.125 z M 2634.625 1782.6562 L 2629.125 1782.9062 L 2623.625 1783.1875 L 2610.625 1803.0625 C 2598.5625 1821.5163 2597.645 1823.2336 2597.625 1827.2188 L 2597.5938 1831.5 L 2611.5938 1831.5 L 2625.5938 1831.5 L 2625.5938 1838.7188 L 2625.5938 1845.9688 L 2630.125 1845.9688 L 2634.625 1845.9688 L 2634.625 1838.7188 L 2634.625 1831.5 L 2639.1562 1831.5 L 2643.6562 1831.5 L 2643.6562 1827.9062 L 2643.6562 1824.2812 L 2639.1562 1824.2812 L 2634.625 1824.2812 L 2634.625 1803.4688 L 2634.625 1782.6562 z M 3059.1875 1783.7812 L 3091.0312 1794.4062 C 3108.544 1800.2477 3123.4734 1805.2406 3124.2188 1805.5312 C 3124.9639 1805.822 3110.6328 1806.118 3092.375 1806.1562 L 3059.1875 1806.2188 L 3059.1875 1795 L 3059.1875 1783.7812 z M 2625.2812 1790.9375 C 2625.4642 1790.7305 2625.5938 1798.133 2625.5938 1807.4062 L 2625.5938 1824.2812 L 2615.2188 1824.2812 C 2609.505 1824.2812 2604.8125 1824.1191 2604.8125 1823.9062 C 2604.8125 1823.5512 2624.5379 1791.7799 2625.2812 1790.9375 z M 2524.4375 1813.4375 L 2524.4375 1916.3438 L 2524.4375 2019.25 L 2474.5312 2002.5938 C 2447.0876 1993.4425 2424.3152 1985.9688 2423.9375 1985.9688 C 2423.56 1985.9688 2423.25 1994.3154 2423.25 2004.5 L 2423.2812 2004.5 L 2423.2812 2023 L 2414 2023 L 2404.75 2023 L 2403.125 2019.5938 C 2400.2748 2013.6581 2389.5279 2010.6686 2384.2812 2014.3438 C 2382.5694 2015.5419 2379.1879 2015.7815 2363.9375 2015.7812 L 2345.6562 2015.7812 L 2342.25 2010.9062 C 2340.313 2008.159 2336.7414 2004.7208 2334.0625 2003 L 2329.3438 1999.9688 L 2329.3438 1910.3125 L 2329.3125 1820.6562 L 2355.3125 1820.6562 C 2377.0333 1820.6562 2381.6229 1820.8921 2383.25 1822.0312 C 2389.3875 1826.331 2400.0759 1823.6493 2403.125 1817.0312 L 2404.75 1813.5 L 2464.5938 1813.4688 L 2524.4375 1813.4375 z M 1683.0312 1842.3438 C 1684.0448 1842.3438 1789.6461 1881.4101 1790.3125 1882.0312 C 1790.6998 1882.3935 1780.3374 1886.6023 1767.2812 1891.4062 C 1735.0007 1903.0005 1735.1358 1903.0516 1711.6875 1911.875 C 1701.8754 1915.4877 1691.3238 1919.4031 1688.2188 1920.5625 L 1682.5625 1922.6562 L 1682.5625 1882.5 C 1682.5625 1860.4141 1682.7683 1842.3432 1683.0312 1842.3438 z M 3417.375 1842.3438 C 3418.3839 1842.3438 3523.961 1881.4128 3524.625 1882.0312 C 3525.0102 1882.3912 3502.8675 1890.9348 3475.4062 1901.0312 C 3447.9453 1911.1293 3423.5474 1920.1504 3421.1875 1921.0625 L 3416.875 1922.7188 L 3416.875 1882.5312 C 3416.875 1860.4307 3417.1119 1842.3438 3417.375 1842.3438 z M 2988.7188 1854.9062 L 2983.2188 1855.1875 L 2977.7188 1855.4375 L 2964.7188 1875.3125 C 2952.6561 1893.7663 2951.7385 1895.4838 2951.7188 1899.4688 L 2951.6875 1903.7812 L 2965.6875 1903.7812 L 2979.6875 1903.7812 L 2979.6875 1911 L 2979.6875 1918.2188 L 2984.2188 1918.2188 L 2988.7188 1918.2188 L 2988.7188 1911 L 2988.7188 1903.7812 L 2993.25 1903.7812 L 2997.75 1903.7812 L 2997.75 1900.1562 L 2997.75 1896.5312 L 2993.25 1896.5312 L 2988.7188 1896.5312 L 2988.7188 1875.7188 L 2988.7188 1854.9062 z M 3059.1875 1856.0312 L 3091.0312 1866.6562 C 3108.544 1872.4977 3123.4734 1877.5218 3124.2188 1877.8125 C 3124.9639 1878.1033 3110.6328 1878.3679 3092.375 1878.4062 L 3059.1875 1878.4688 L 3059.1875 1867.25 L 3059.1875 1856.0312 z M 3585.4688 1861.2188 C 3593.8524 1860.8832 3603.2829 1865.0342 3606.75 1871 C 3613 1884.9998 3613 1884.9998 3607.4375 1899.75 C 3604.0782 1904.6327 3598.1519 1908.822 3592.9062 1910.0312 C 3585.7162 1911.6899 3579.5267 1910.5855 3573.0625 1906.4375 C 3554.8613 1894.7578 3560.5534 1866.1567 3581.9688 1861.6562 C 3583.1026 1861.418 3584.2709 1861.2664 3585.4688 1861.2188 z M 2979.3438 1863.1875 C 2979.5264 1862.9805 2979.6875 1870.4137 2979.6875 1879.6875 L 2979.6875 1896.5312 L 2969.3125 1896.5312 C 2963.5993 1896.5322 2958.9062 1896.3692 2958.9062 1896.1562 C 2958.9062 1895.8012 2978.6004 1864.03 2979.3438 1863.1875 z M 1117.4062 1892.9375 L 1392.75 1892.9375 L 1668.0938 1892.9375 L 1668.3125 1918.0625 L 1668.5625 1943.1875 L 1697.4688 1932.5312 C 1703.0021 1930.4871 1707.4471 1928.8368 1712 1927.1562 C 1710.4431 1928.9417 1709.0655 1930.7115 1708.2188 1932.1562 C 1704.5653 1938.3909 1702.7999 1945.5631 1702.9688 1952.7812 C 1703.0997 1958.3957 1704.404 1964.0322 1706.875 1969.3125 C 1710.3938 1976.8325 1718.2066 1984.6612 1725.25 1987.7188 C 1726.7774 1988.3815 1728.341 1989.0539 1729.5312 1989.625 L 1729.5312 2015.7812 L 1526.7812 2015.7812 C 1500.0008 2016.5258 1500 2016.625 1487 2016.5 C 1477.3871 2016.75 1468.5691 2017.017 1457.8438 2015.125 C 1455.934 2014.2422 1453.999 2011.7606 1453.4375 2010.4375 C 1452.0348 2007.1308 1444.0903 1999.195 1439.4375 1996.4688 C 1428.3549 1989.9733 1414.3507 1989.4772 1402.2812 1995.125 C 1394.7613 1998.6441 1386.901 2006.4882 1383.8438 2013.5312 C 1382.6236 2016.341 1381.2162 2018.7885 1380.6875 2019 C 1380.1589 2019.2116 1347.8429 2007.6417 1308.875 1993.2812 C 1269.9071 1978.9216 1237.2985 1966.9629 1236.4375 1966.6875 C 1236.2559 1966.6295 1236.1109 1966.5795 1235.9688 1966.625 C 1234.9665 1966.9222 1234.8528 1970.5587 1234.6562 1989.5 L 1234.4062 2012.8125 L 1232.1562 2013.125 C 1230.929 2013.2981 1229.119 2013.9912 1228.125 2014.6875 C 1227.4632 2015.151 1221.4736 2015.4662 1204.0938 2015.6562 L 1204.0938 2015.7812 L 1100.8438 2015.7812 L 1100.8438 1962.625 L 1100.8438 1909.5 L 1105.75 1906.125 C 1108.4466 1904.2677 1112.1743 1900.5398 1114.0312 1897.8438 L 1117.4062 1892.9375 z M 1804.875 1892.9375 L 1911.7188 1892.9375 L 2018.5938 1892.9375 L 2018.5938 1946.5625 L 2018.5938 2000.1562 L 2013.7812 2003.375 C 1997.2536 2014.3498 1997.2323 2038.6874 2013.75 2050.375 L 2018.5938 2053.7812 L 2018.5938 2107.0625 L 2018.5938 2160.3125 L 1911.125 2160.3125 L 1803.6875 2160.3125 L 1736.25 2135.4688 C 1699.1674 2121.8063 1668.6658 2110.625 1668.4688 2110.625 C 1668.2704 2110.625 1668.0929 2121.8057 1668.0938 2135.4688 L 1668.0938 2160.3125 L 1564.5312 2160.3125 C 1467.7861 2160.3125 1460.7243 2160.1946 1457.5312 2158.7188 C 1455.6227 2157.8355 1453.6552 2156.1053 1453.0938 2154.7812 C 1451.6907 2151.4752 1443.746 2143.5392 1439.0938 2140.8125 C 1428.0103 2134.3176 1414.0067 2133.8201 1401.9375 2139.4688 C 1394.4176 2142.9877 1386.589 2150.8002 1383.5312 2157.8438 C 1382.312 2160.6532 1380.8725 2163.1321 1380.3438 2163.3438 C 1379.8148 2163.5554 1347.499 2151.9853 1308.5312 2137.625 C 1269.5642 2123.2646 1236.986 2111.2752 1236.125 2111 C 1234.6716 2110.5352 1234.5364 2112.1653 1234.3125 2133.8125 L 1234.0625 2157.1562 L 1231.8438 2157.4688 C 1230.6155 2157.6417 1228.8065 2158.3356 1227.8125 2159.0312 C 1226.3047 2160.0874 1215.6127 2160.3125 1163.4062 2160.3125 L 1100.8438 2160.3125 L 1100.8438 2098.875 L 1100.8438 2037.4688 L 1204.0938 2037.4688 L 1204.0938 2038 C 1220.6397 2038.188 1226.5742 2038.4484 1227.1875 2038.875 C 1228.1674 2039.5566 1230.2921 2040.3987 1231.9062 2040.75 L 1234.8438 2041.4062 L 1234.8438 2064.7812 L 1234.8438 2088.1562 L 1240.75 2085.9375 C 1254.2898 2080.8412 1377.2316 2035.5732 1378.5 2035.2188 C 1379.5457 2034.9253 1380.1925 2036.1566 1381.0938 2040.2188 C 1385.1217 2058.3787 1402.9553 2071.3101 1422.1562 2069.9688 C 1437.4026 2068.9034 1450.9433 2058.9365 1456.2188 2044.9375 C 1457.2342 2042.2407 1458.7497 2039.516 1459.5938 2038.875 C 1460.2473 2038.3778 1469.004 2038.0809 1493.9688 2037.9062 C 1504.6572 2037.543 1505 2037.7309 1523.375 2037.4688 L 1751.1875 2037.4688 L 1751.375 1990.5938 L 1751.4688 1990.5938 C 1751.6635 1990.5496 1751.755 1990.5177 1752 1990.4688 C 1770.1887 1986.8527 1783.0273 1968.5498 1781.6875 1949.375 C 1780.6222 1934.1297 1770.6865 1920.6186 1756.6875 1915.3438 C 1754.7554 1914.6153 1752.8405 1913.6314 1751.6562 1912.8125 L 1751.6562 1912.5938 L 1778.2812 1902.75 L 1804.875 1892.9375 z M 2956.1875 1927.25 L 2956.1875 1942.9375 L 2956.1875 1958.5938 L 2960.9062 1957.375 C 2967.8378 1955.5769 2973.2636 1955.8389 2977.8438 1958.1875 C 2987.6273 1963.204 2987.6082 1977.0456 2977.8125 1982.1875 C 2974.4946 1983.928 2972.8221 1984.2234 2967.9375 1983.9062 C 2964.7002 1983.697 2960.1341 1982.6653 2957.7812 1981.625 L 2953.5 1979.75 L 2953.5 1984.1875 C 2953.5 1988.5507 2953.539 1988.6124 2956.875 1989.4688 C 2958.738 1989.946 2961.0689 1990.5527 2962.0625 1990.8125 C 2963.0562 1991.0725 2967.3308 1991.1531 2971.5625 1991 C 2980.4337 1990.6788 2984.9786 1988.8597 2989.4375 1983.7812 C 2997.4395 1974.668 2994.8168 1958.0258 2984.4062 1951.9062 C 2980.6735 1949.7124 2979.2079 1949.375 2972.6875 1949.375 L 2965.25 1949.375 L 2965.25 1941.9375 L 2965.25 1934.4688 L 2977.4375 1934.4688 L 2989.625 1934.4688 L 2989.625 1930.875 L 2989.625 1927.25 L 2972.9062 1927.25 L 2956.1875 1927.25 z M 3059.1875 1928.3125 L 3091.0312 1938.9062 C 3108.544 1944.7477 3123.4734 1949.7718 3124.2188 1950.0625 C 3124.9639 1950.3532 3110.6328 1950.6173 3092.375 1950.6562 L 3059.1875 1950.75 L 3059.1875 1939.5312 L 3059.1875 1928.3125 z M 1740.8125 1928.4375 C 1744.1222 1928.4545 1747.546 1929.0116 1751.5938 1929.4688 C 1753.0847 1930.0782 1754.592 1930.818 1756.1875 1931.6875 C 1761.0707 1935.047 1765.2905 1941.0043 1766.5 1946.25 C 1768.1575 1953.4402 1767.0227 1959.6291 1762.875 1966.0938 C 1759.9201 1970.6979 1755.8912 1973.759 1751.4375 1975.4375 C 1735.8545 1977.9234 1722.9804 1975.8184 1718.125 1957.1875 C 1717.8866 1956.0537 1717.7355 1954.8853 1717.6875 1953.6875 C 1717.3532 1945.3037 1721.5029 1935.842 1727.4688 1932.375 C 1732.486 1929.2827 1736.5571 1928.4153 1740.8125 1928.4375 z M 2546.0938 1936.2812 L 2643.6562 1936.2812 L 2741.2188 1936.2812 L 2741.2188 2091.6562 L 2741.2188 2247.0312 L 2643.6562 2247.0312 L 2546.0938 2247.0312 L 2546.0938 2091.6562 L 2546.0938 1936.2812 z M 1249.7812 1987.0625 C 1250.7903 1987.0625 1356.3984 2026.1314 1357.0625 2026.75 C 1357.4477 2027.1092 1335.2738 2035.6528 1307.8125 2045.75 C 1280.3511 2055.847 1255.9534 2064.8693 1253.5938 2065.7812 L 1249.3125 2067.4375 L 1249.3125 2027.25 C 1249.3125 2005.1492 1249.5192 1987.0625 1249.7812 1987.0625 z M 2431.5938 1996.2188 C 2431.7366 1996.2088 2431.8803 1996.2193 2432.0625 1996.2812 C 2432.9319 1996.5593 2451.1371 2002.6752 2472.5 2009.8438 L 2472.5 2009.8125 L 2511.3438 2022.875 L 2470.9062 2022.9375 L 2430.5 2023 L 2430.5 2009.4062 C 2430.5 1998.4236 2430.593 1996.2724 2431.5938 1996.2188 z M 2979.0312 1997.9688 C 2974.6717 1997.9906 2970.2452 1998.801 2967.3438 2000.2812 C 2962.4765 2002.7649 2957.619 2008.5436 2955.125 2014.8125 C 2952.3635 2021.7537 2952.1773 2039.7449 2954.7812 2047.6875 C 2956.8855 2054.102 2962.4293 2060.5197 2967.5 2062.375 C 2976.7278 2065.7516 2988.3043 2061.8945 2993 2053.9062 C 2995.2142 2050.14 2995.51 2048.7468 2995.5 2041.9688 C 2995.49 2035.8117 2995.089 2033.5495 2993.5 2030.5625 C 2989.9182 2023.8302 2983.8723 2020.3245 2975.9062 2020.3125 C 2971.3664 2020.3025 2968.0465 2021.6781 2964.4375 2025.0938 L 2961.4062 2027.9688 L 2962 2023.4688 C 2962.3339 2020.9837 2963.7223 2016.7005 2965.0625 2013.9688 C 2967.0001 2010.0177 2968.3272 2008.5845 2971.5312 2006.9688 C 2976.4689 2004.4779 2980.9356 2004.4069 2986.9375 2006.6875 L 2991.5312 2008.4062 L 2991.25 2004.1875 L 2990.9688 1999.9688 L 2986.4688 1998.7812 C 2984.2359 1998.2006 2981.648 1997.9551 2979.0312 1997.9688 z M 3059.1875 2000.5625 L 3091.0312 2011.1875 C 3108.544 2017.0289 3123.4726 2022.0529 3124.2188 2022.3438 C 3123.6905 2022.6188 3109.834 2022.8992 3092.375 2022.9375 L 3059.1875 2023 L 3059.1875 2011.7812 L 3059.1875 2000.5625 z M 1417.9062 2005.9375 C 1426.2903 2005.6028 1435.7204 2009.7523 1439.1875 2015.7188 C 1444.1691 2026.8161 1445.1789 2036.6272 1439.875 2044.4688 C 1436.5157 2049.3515 1430.5581 2053.5406 1425.3125 2054.75 C 1418.1223 2056.4078 1411.9641 2055.3046 1405.5 2051.1562 C 1387.2988 2039.4769 1392.9596 2010.875 1414.375 2006.375 C 1415.509 2006.1368 1416.7093 2005.9853 1417.9062 2005.9375 z M 2974.4688 2027.625 C 2976.3391 2027.625 2978.327 2028.0747 2980.3438 2029.0312 C 2986.3261 2031.8709 2988.722 2042.004 2985.2188 2049.7188 C 2984.0889 2052.206 2982.4965 2053.8854 2980.3438 2054.9062 C 2971.0302 2059.3257 2962.5625 2053.1671 2962.5625 2041.9688 C 2962.5625 2033.3103 2967.7875 2027.6181 2974.4688 2027.625 z M 2524.4375 2030.2188 L 2524.4375 2060.875 L 2524.4375 2091.5 L 2474.5312 2074.875 C 2447.0876 2065.7237 2424.3152 2058.218 2423.9375 2058.2188 C 2423.56 2058.2186 2423.25 2066.5655 2423.25 2076.75 L 2423.2812 2076.75 L 2423.2812 2095.2812 L 2414 2095.25 L 2404.75 2095.25 L 2403.125 2091.875 C 2400.2748 2085.94 2389.5274 2082.9194 2384.2812 2086.5938 C 2382.5694 2087.7928 2379.1879 2088.032 2363.9375 2088.0312 L 2345.6562 2088.0312 L 2342.25 2083.1875 C 2340.313 2080.4392 2336.7414 2077.0024 2334.0625 2075.2812 L 2329.3438 2072.2188 L 2329.3438 2063.125 L 2329.3125 2054.0312 L 2334.2188 2050.625 C 2336.9153 2048.7677 2340.6427 2045.0717 2342.5 2042.375 L 2345.875 2037.4688 L 2363.5938 2037.4688 C 2377.9297 2037.4678 2381.674 2037.7086 2383.25 2038.8125 C 2389.3875 2043.1113 2400.0759 2040.4296 2403.125 2033.8125 L 2404.75 2030.2812 L 2464.5938 2030.25 L 2524.4375 2030.2188 z M 900.625 2037.4688 L 989.875 2037.4688 L 1079.1562 2037.4688 L 1079.1562 2109.7188 L 1079.1562 2181.9688 L 1152.125 2181.9688 C 1212.496 2181.9686 1225.4008 2182.1932 1226.875 2183.2188 C 1227.8549 2183.8998 1229.9561 2184.744 1231.5625 2185.0938 L 1234.5 2185.7188 L 1234.75 2209 L 1234.9688 2232.25 L 1306.7812 2205.7812 C 1346.2776 2191.2207 1378.8237 2179.2913 1379.0938 2179.2812 C 1379.3637 2179.2713 1380.1013 2181.6685 1380.75 2184.5938 C 1384.7665 2202.6984 1402.669 2215.6213 1421.8438 2214.2812 C 1437.0884 2213.216 1450.5997 2203.2802 1455.875 2189.2812 C 1456.8912 2186.5847 1458.4389 2183.8591 1459.2812 2183.2188 C 1460.5122 2182.2831 1481.2449 2182.023 1564.4375 2182 L 1668.0938 2181.9688 L 1668.3125 2207.125 L 1668.5625 2232.25 L 1697.4688 2221.5625 C 1705.3699 2218.6431 1708.5913 2217.4739 1713.625 2215.625 C 1711.6442 2217.7872 1709.8714 2219.9966 1708.8438 2221.75 C 1705.1898 2227.9842 1703.4252 2235.1567 1703.5938 2242.375 C 1703.7242 2247.9894 1705.029 2253.6264 1707.5 2258.9062 C 1711.0188 2266.4262 1718.8316 2274.2551 1725.875 2277.3125 C 1728.1566 2278.642 1730.5454 2279.4358 1733 2279.9062 C 1732.957 2281.6236 1733.048 2301.9348 1733 2305 C 1730.562 2305.03 1728.1508 2305.01 1725 2305 L 1595.25 2304.8438 C 1489.4463 2304.8438 1548.2118 2306.1562 1460 2305 C 1345 2306.1562 1375 2304.9999 1220 2304.2188 C 1204.8185 2304.7168 1162.8137 2304.8438 1055.0312 2304.8438 L 884.0625 2304.8438 L 884.0625 2179.4375 L 884.0625 2054 L 888.9375 2050.625 C 891.63411 2048.7678 895.3615 2045.0397 897.21875 2042.3438 L 900.625 2037.4688 z M 2645.1562 2062.9375 C 2640.5087 2062.9475 2635.9153 2063.8481 2633.3438 2065.4375 C 2626.9324 2069.4 2624.824 2077.6958 2628.375 2085.0312 L 2630.25 2088.875 L 2627.0938 2091.6562 C 2620.6199 2097.3401 2617.9468 2106.2676 2620.25 2114.5625 C 2621.5905 2119.3897 2627.9666 2125.5327 2633.4375 2127.2812 C 2642.2598 2130.1011 2656.2982 2127.3711 2660.7812 2121.9688 C 2661.8475 2120.6842 2662.3265 2120.9244 2665.0938 2124.1562 C 2668.0956 2127.6636 2668.3872 2127.7812 2673.75 2127.7812 L 2679.2812 2127.7812 L 2673.0938 2121.5312 L 2666.9062 2115.3125 L 2668.875 2112.5625 C 2671.5803 2108.7633 2674.984 2100.9044 2675.6875 2096.8438 L 2676.25 2093.4688 L 2672.25 2093.4688 L 2668.2188 2093.4688 L 2667.5938 2097.3125 C 2666.9061 2101.519 2663.6824 2109.718 2662.7188 2109.7188 C 2661.148 2109.7188 2635.6242 2082.8398 2635.0625 2080.5938 C 2634.1076 2076.7748 2635.2989 2073.7018 2638.5 2071.75 C 2642.1893 2069.5015 2646.8711 2069.4857 2653.2188 2071.7188 L 2658.2188 2073.5 L 2657.9375 2069.3125 L 2657.6562 2065.125 L 2653.1562 2063.9062 C 2650.7524 2063.2569 2647.9453 2062.9313 2645.1562 2062.9375 z M 2781.875 2064.5625 L 2781.875 2096.1562 L 2781.875 2127.7812 L 2802.1875 2127.7812 L 2822.5312 2127.7812 L 2822.5312 2124.1875 L 2822.5312 2120.5625 L 2806.7188 2120.5625 L 2790.9062 2120.5625 L 2790.9062 2109.2812 L 2790.9062 2097.9688 L 2805.8125 2097.9688 L 2820.7188 2097.9688 L 2820.7188 2094.375 L 2820.7188 2090.75 L 2805.8125 2090.75 L 2790.9062 2090.75 L 2790.9062 2081.2812 L 2790.9062 2071.7812 L 2806.25 2071.7812 L 2821.625 2071.7812 L 2821.625 2068.1562 L 2821.625 2064.5625 L 2801.75 2064.5625 L 2781.875 2064.5625 z M 2836.9688 2064.5625 L 2836.9688 2096.1562 L 2836.9688 2127.7812 L 2841.5 2127.7812 L 2846 2127.7812 L 2846.0625 2101.375 L 2846.0938 2074.9375 L 2859.375 2101.375 L 2872.625 2127.7812 L 2878.75 2127.7812 L 2884.8438 2127.7812 L 2884.8438 2096.1562 L 2884.8438 2064.5625 L 2880.3125 2064.5625 L 2875.8125 2064.5625 L 2875.75 2090.9688 L 2875.7188 2117.4062 L 2862.4375 2090.9688 L 2849.1875 2064.5625 L 2843.0625 2064.5625 L 2836.9688 2064.5625 z M 2431.5938 2068.4688 C 2431.7366 2068.4587 2431.8803 2068.5035 2432.0625 2068.5625 C 2432.9319 2068.8407 2451.1371 2074.9252 2472.5 2082.0938 L 2511.3438 2095.125 L 2470.9062 2095.1875 L 2430.5 2095.2812 L 2430.5 2081.6562 C 2430.5 2070.6728 2430.5929 2068.522 2431.5938 2068.4688 z M 2953.5 2071.7812 L 2953.5 2075.4062 L 2953.5 2079 L 2968.4062 2079 C 2976.6535 2079 2983.3125 2079.3619 2983.3125 2079.8125 C 2983.3125 2080.2603 2979.2079 2091.3472 2974.1875 2104.4375 C 2969.1673 2117.5277 2964.4836 2129.7621 2963.8125 2131.625 L 2962.5938 2135 L 2967 2135 C 2970.3323 2135 2971.5274 2134.6403 2972 2133.4375 C 2980.6613 2111.3914 2994.1573 2074.9435 2994.1562 2073.5938 C 2994.1564 2071.8438 2993.523 2071.7812 2973.8125 2071.7812 L 2953.5 2071.7812 z M 3059.1875 2072.8125 L 3091.0312 2083.4375 C 3108.544 2089.2789 3123.4726 2094.3021 3124.2188 2094.5938 C 3124.9639 2094.8845 3110.6328 2095.1475 3092.375 2095.1875 L 3059.1875 2095.2812 L 3059.1875 2084.0312 L 3059.1875 2072.8125 z M 2635.0938 2093.375 L 2646.375 2104.75 L 2657.6562 2116.125 L 2655.4688 2117.7812 C 2654.255 2118.7056 2651.7628 2119.9216 2649.9375 2120.4688 C 2633.0008 2125.543 2620.5435 2109.587 2631.7188 2097.125 L 2635.0938 2093.375 z M 2524.4375 2102.5 L 2524.4375 2135 L 2524.4375 2167.5312 L 2464.5938 2167.5312 L 2404.75 2167.5 L 2403.125 2164.125 C 2400.2748 2158.1901 2389.4958 2155.2007 2384.25 2158.875 C 2382.4874 2160.1098 2378.4686 2160.3125 2355.75 2160.3125 L 2329.3125 2160.3125 L 2329.3125 2143.2812 L 2329.3125 2126.2812 L 2334.2188 2122.9062 C 2336.9153 2121.0489 2340.6427 2117.3217 2342.5 2114.625 L 2345.875 2109.7188 L 2363.5938 2109.7188 C 2377.9297 2109.7188 2381.674 2109.9895 2383.25 2111.0938 C 2389.3875 2115.3924 2400.0759 2112.6796 2403.125 2106.0625 L 2404.75 2102.5312 L 2464.5938 2102.5312 L 2524.4375 2102.5 z M 1249.4688 2131.4062 C 1250.4766 2131.4062 1356.0545 2170.4751 1356.7188 2171.0938 C 1357.1029 2171.4529 1334.9613 2179.9963 1307.5 2190.0938 C 1280.0386 2200.1907 1255.6423 2209.1815 1253.2812 2210.0938 L 1248.9688 2211.7812 L 1248.9688 2171.5938 C 1248.9688 2149.4929 1249.2051 2131.4062 1249.4688 2131.4062 z M 1683.0312 2131.4062 C 1684.0448 2131.4062 1789.6461 2170.4724 1790.3125 2171.0938 C 1790.6998 2171.4549 1780.3374 2175.664 1767.2812 2180.4688 C 1730.0007 2194.9994 1731.0904 2194.5238 1711.6875 2200.9375 C 1701.8754 2204.5501 1691.3231 2208.4337 1688.2188 2209.5938 L 1682.5625 2211.7188 L 1682.5625 2171.5625 C 1682.5625 2149.4767 1682.7684 2131.4062 1683.0312 2131.4062 z M 1417.5625 2150.2812 C 1425.9463 2149.9471 1435.4079 2154.0967 1438.875 2160.0625 C 1444 2174.9998 1444 2174.9998 1439.5625 2188.7812 C 1436.2032 2193.6645 1430.2457 2197.8841 1425 2199.0938 C 1417.8098 2200.7514 1411.6209 2199.6163 1405.1562 2195.4688 C 1386.956 2183.789 1392.6471 2155.2184 1414.0625 2150.7188 C 1415.1964 2150.4805 1416.3648 2150.3293 1417.5625 2150.2812 z M 1742.375 2217 C 1746.9495 2216.937 1751.5493 2218.4131 1756.8125 2221.2812 C 1761.6957 2224.6409 1765.9155 2230.5981 1767.125 2235.8438 C 1768.7825 2243.034 1767.6477 2249.2231 1763.5 2255.6875 C 1751.82 2273.8883 1723.2493 2268.1967 1718.75 2246.7812 C 1718.5116 2245.6474 1718.3605 2244.479 1718.3125 2243.2812 C 1717.9782 2234.8974 1722.128 2225.4358 1728.0938 2221.9688 C 1733.251 2218.6662 1737.8005 2217.0635 1742.375 2217 z M 2278.7188 2377.0938 L 2278.7188 2380.7188 L 2278.7188 2384.3125 L 2318.4688 2384.3125 L 2358.2188 2384.3125 L 2358.2188 2380.7188 L 2358.2188 2377.0938 L 2318.4688 2377.0938 L 2278.7188 2377.0938 z M 2300.4062 2398.7812 L 2300.4062 2402.375 L 2300.4062 2406 L 2318.4688 2406 L 2336.5312 2406 L 2336.5312 2402.375 L 2336.5312 2398.7812 L 2318.4688 2398.7812 L 2300.4062 2398.7812 z "
     id="path3030" />
  <text
     xml:space="preserve"
     style="font-size:136.0214386px;font-style:normal;font-variant:normal;font-weight:normal;font-stretch:normal;line-height:125.99999905%;letter-spacing:0px;word-spacing:0px;fill:#000000;fill-opacity:1;stroke:none;font-family:Monospace;-inkscape-font-specification:Monospace"
     x="65"
     y="450"
     id="text3038"
     sodipodi:linespacing="126%"><tspan
       sodipodi:role="line"
       id="tspan3040"
       x="65"
       y="450">A<tspan
   style="font-size:88.41517639px;baseline-shift:sub"
   id="tspan3042">0</tspan></tspan></text>
  <text
     sodipodi:linespacing="126%"
     id="text3044"
     y="595"
     x="65"
     style="font-size:136.0214386px;font-style:normal;font-variant:normal;font-weight:normal;font-stretch:normal;line-height:125.99999905%;letter-spacing:0px;word-spacing:0px;fill:#000000;fill-opacity:1;stroke:none;font-family:Monospace;-inkscape-font-specification:Monospace"
     xml:space="preserve"><tspan
       y="595"
       x="65"
       id="tspan3046"
       sodipodi:role="line">A<tspan
   id="tspan3048"
   style="font-size:88.41517639px;baseline-shift:sub">1</tspan></tspan></text>
  <text
     xml:space="preserve"
     style="font-size:136.0214386px;font-style:normal;font-variant:normal;font-weight:normal;font-stretch:normal;line-height:125.99999905%;letter-spacing:0px;word-spacing:0px;fill:#000000;fill-opacity:1;stroke:none;font-family:Monospace;-inkscape-font-specification:Monospace"
     x="65"
     y="735"
     id="text3050"
     sodipodi:linespacing="126%"><tspan
       sodipodi:role="line"
       id="tspan3052"
       x="65"
       y="735">A<tspan
   style="font-size:88.41517639px;baseline-shift:sub"
   id="tspan3054">2</tspan></tspan></text>
  <text
     sodipodi:linespacing="126%"
     id="text3056"
     y="880"
     x="65"
     style="font-size:136.0214386px;font-style:normal;font-variant:normal;font-weight:normal;font-stretch:normal;line-height:125.99999905%;letter-spacing:0px;word-spacing:0px;fill:#000000;fill-opacity:1;stroke:none;font-family:Monospace;-inkscape-font-specification:Monospace"
     xml:space="preserve"><tspan
       y="880"
       x="65"
       id="tspan3058"
       sodipodi:role="line">A<tspan
   id="tspan3060"
   style="font-size:88.41517639px;baseline-shift:sub">3</tspan></tspan></text>
  <text
     xml:space="preserve"
     style="font-size:136.0214386px;font-style:normal;font-variant:normal;font-weight:normal;font-stretch:normal;line-height:125.99999905%;letter-spacing:0px;word-spacing:0px;fill:#000000;fill-opacity:1;stroke:none;font-family:Monospace;-inkscape-font-specification:Monospace"
     x="65"
     y="1250"
     id="text3081"
     sodipodi:linespacing="126%"><tspan
       sodipodi:role="line"
       id="tspan3083"
       x="65"
       y="1250">I<tspan
   style="font-size:88.41517639px;baseline-shift:sub"
   id="tspan3085">0</tspan></tspan></text>
  <text
     sodipodi:linespacing="126%"
     id="text3087"
     y="1390"
     x="65"
     style="font-size:136.0214386px;font-style:normal;font-variant:normal;font-weight:normal;font-stretch:normal;line-height:125.99999905%;letter-spacing:0px;word-spacing:0px;fill:#000000;fill-opacity:1;stroke:none;font-family:Monospace;-inkscape-font-specification:Monospace"
     xml:space="preserve"><tspan
       y="1390"
       x="65"
       id="tspan3089"
       sodipodi:role="line">I<tspan
   id="tspan3091"
   style="font-size:88.41517639px;baseline-shift:sub">1</tspan></tspan></text>
  <text
     xml:space="preserve"
     style="font-size:136.0214386px;font-style:normal;font-variant:normal;font-weight:normal;font-stretch:normal;line-height:125.99999905%;letter-spacing:0px;word-spacing:0px;fill:#000000;fill-opacity:1;stroke:none;font-family:Monospace;-inkscape-font-specification:Monospace"
     x="65"
     y="1535"
     id="text3093"
     sodipodi:linespacing="126%"><tspan
       sodipodi:role="line"
       id="tspan3095"
       x="65"
       y="1535">I<tspan
   style="font-size:88.41517639px;baseline-shift:sub"
   id="tspan3097">2</tspan></tspan></text>
  <text
     sodipodi:linespacing="126%"
     id="text3099"
     y="1465"
     x="3800"
     style="font-size:136.0214386px;font-style:normal;font-variant:normal;font-weight:normal;font-stretch:normal;line-height:125.99999905%;letter-spacing:0px;word-spacing:0px;fill:#000000;fill-opacity:1;stroke:none;font-family:Monospace;-inkscape-font-specification:Monospace"
     xml:space="preserve"><tspan
       y="1465"
       x="3800"
       id="tspan3101"
       sodipodi:role="line">S<tspan
   id="tspan3103"
   style="font-size:88.41517639px;baseline-shift:sub">0</tspan></tspan></text>
  <text
     xml:space="preserve"
     style="font-size:136.0214386px;font-style:normal;font-variant:normal;font-weight:normal;font-stretch:normal;line-height:125.99999905%;letter-spacing:0px;word-spacing:0px;fill:#000000;fill-opacity:1;stroke:none;font-family:Monospace;-inkscape-font-specification:Monospace"
     x="3800"
     y="1610"
     id="text3105"
     sodipodi:linespacing="126%"><tspan
       sodipodi:role="line"
       id="tspan3107"
       x="3800"
       y="1610">S<tspan
   style="font-size:88.41517639px;baseline-shift:sub"
   id="tspan3109">1</tspan></tspan></text>
  <text
     sodipodi:linespacing="126%"
     id="text3111"
     y="1750"
     x="3800"
     style="font-size:136.0214386px;font-style:normal;font-variant:normal;font-weight:normal;font-stretch:normal;line-height:125.99999905%;letter-spacing:0px;word-spacing:0px;fill:#000000;fill-opacity:1;stroke:none;font-family:Monospace;-inkscape-font-specification:Monospace"
     xml:space="preserve"><tspan
       y="1750"
       x="3800"
       id="tspan3113"
       sodipodi:role="line">S<tspan
   id="tspan3115"
   style="font-size:88.41517639px;baseline-shift:sub">2</tspan></tspan></text>
  <text
     xml:space="preserve"
     style="font-size:136.0214386px;font-style:normal;font-variant:normal;font-weight:normal;font-stretch:normal;line-height:125.99999905%;letter-spacing:0px;word-spacing:0px;fill:#000000;fill-opacity:1;stroke:none;font-family:Monospace;-inkscape-font-specification:Monospace"
     x="3800"
     y="1895"
     id="text3117"
     sodipodi:linespacing="126%"><tspan
       sodipodi:role="line"
       id="tspan3119"
       x="3800"
       y="1895">S<tspan
   style="font-size:88.41517639px;baseline-shift:sub"
   id="tspan3121">3</tspan></tspan></text>
  <text
     xml:space="preserve"
     style="font-size:79.34663391px;font-style:normal;font-variant:normal;font-weight:normal;font-stretch:normal;line-height:125.99999905%;letter-spacing:0px;word-spacing:0px;fill:#000000;fill-opacity:1;stroke:none;font-family:Monospace;-inkscape-font-specification:Monospace"
     x="1470"
     y="2140"
     id="text3352"
     sodipodi:linespacing="126%"><tspan
       sodipodi:role="line"
       id="tspan3354"
       x="1470"
       y="2140" /></text>
</svg>
